<?xml version="1.0" encoding="UTF-8" standalone="no"?>
<!-- Created with Inkscape (http://www.inkscape.org/) -->

<svg
   xmlns:dc="http://purl.org/dc/elements/1.1/"
   xmlns:cc="http://creativecommons.org/ns#"
   xmlns:rdf="http://www.w3.org/1999/02/22-rdf-syntax-ns#"
   xmlns:svg="http://www.w3.org/2000/svg"
   xmlns="http://www.w3.org/2000/svg"
   xmlns:sodipodi="http://sodipodi.sourceforge.net/DTD/sodipodi-0.dtd"
   xmlns:inkscape="http://www.inkscape.org/namespaces/inkscape"
   width="225.81015"
   height="150.30504"
   id="svg7908"
   version="1.1"
   inkscape:version="0.91 r13725"
   sodipodi:docname="figura.svg">
  <sodipodi:namedview
     id="base"
     pagecolor="#ffffff"
     bordercolor="#666666"
     borderopacity="1.0"
     inkscape:pageopacity="0.0"
     inkscape:pageshadow="2"
     inkscape:zoom="3.5529912"
     inkscape:cx="55.045532"
     inkscape:cy="58.233061"
     inkscape:document-units="mm"
     inkscape:current-layer="layer1"
     showgrid="false"
     units="cm"
     inkscape:window-width="1920"
     inkscape:window-height="1052"
     inkscape:window-x="0"
     inkscape:window-y="0"
     inkscape:window-maximized="1"
     fit-margin-top="0"
     fit-margin-left="0"
     fit-margin-right="0"
     fit-margin-bottom="0">
    <inkscape:grid
       originy="-171.89814"
       originx="-21.679408"
       snapvisiblegridlinesonly="true"
       enabled="true"
       visible="true"
       empspacing="5"
       id="grid7916"
       type="xygrid" />
  </sodipodi:namedview>
  <defs
     id="defs7910">
    <marker
       style="overflow:visible"
       id="Arrow1Send"
       refX="0"
       refY="0"
       orient="auto"
       inkscape:stockid="Arrow1Send">
      <path
         inkscape:connector-curvature="0"
         transform="matrix(-0.2,0,0,-0.2,-1.2,0)"
         style="fill-rule:evenodd;stroke:#000000;stroke-width:1pt"
         d="M 0,0 5,-5 -12.5,0 5,5 0,0 Z"
         id="path4945" />
    </marker>
  </defs>
  <metadata
     id="metadata7913">
    <rdf:RDF>
      <cc:Work
         rdf:about="">
        <dc:format>image/svg+xml</dc:format>
        <dc:type
           rdf:resource="http://purl.org/dc/dcmitype/StillImage" />
        <dc:title></dc:title>
      </cc:Work>
    </rdf:RDF>
  </metadata>
  <g
     transform="translate(-21.679408,-730.15767)"
     id="layer1"
     inkscape:groupmode="layer"
     inkscape:label="Layer 1">
    <g
       id="g10294"
       transform="matrix(0.38565304,0,0,0.28941463,25.546228,727.81179)">
      <path
         d="m 70.5,444 9,0 m 495.5,0 -9,0"
         id="path9354"
         inkscape:connector-curvature="0"
         style="color:#000000;fill:none;stroke:#000000;stroke-width:1;stroke-linecap:butt;stroke-linejoin:miter" />
      <path
         d="m 70.5,401.3 9,0 m 495.5,0 -9,0"
         id="path9360"
         inkscape:connector-curvature="0"
         style="color:#000000;fill:none;stroke:#000000;stroke-width:1;stroke-linecap:butt;stroke-linejoin:miter" />
      <path
         d="m 70.5,358.5 9,0 m 495.5,0 -9,0"
         id="path9366"
         inkscape:connector-curvature="0"
         style="color:#000000;fill:none;stroke:#000000;stroke-width:1;stroke-linecap:butt;stroke-linejoin:miter" />
      <path
         d="m 70.5,315.8 9,0 m 495.5,0 -9,0"
         id="path9372"
         inkscape:connector-curvature="0"
         style="color:#000000;fill:none;stroke:#000000;stroke-width:1;stroke-linecap:butt;stroke-linejoin:miter" />
      <path
         d="m 70.5,273.1 9,0 m 495.5,0 -9,0"
         id="path9378"
         inkscape:connector-curvature="0"
         style="color:#000000;fill:none;stroke:#000000;stroke-width:1;stroke-linecap:butt;stroke-linejoin:miter" />
      <path
         d="m 70.5,230.3 9,0 m 495.5,0 -9,0"
         id="path9384"
         inkscape:connector-curvature="0"
         style="color:#000000;fill:none;stroke:#000000;stroke-width:1;stroke-linecap:butt;stroke-linejoin:miter" />
      <path
         d="m 70.5,187.6 9,0 m 495.5,0 -9,0"
         id="path9390"
         inkscape:connector-curvature="0"
         style="color:#000000;fill:none;stroke:#000000;stroke-width:1;stroke-linecap:butt;stroke-linejoin:miter" />
      <path
         d="m 70.5,144.9 9,0 m 495.5,0 -9,0"
         id="path9396"
         inkscape:connector-curvature="0"
         style="color:#000000;fill:none;stroke:#000000;stroke-width:1;stroke-linecap:butt;stroke-linejoin:miter" />
      <path
         d="m 70.5,102.2 9,0 m 495.5,0 -9,0"
         id="path9402"
         inkscape:connector-curvature="0"
         style="color:#000000;fill:none;stroke:#000000;stroke-width:1;stroke-linecap:butt;stroke-linejoin:miter" />
      <path
         d="m 70.5,59.4 9,0 m 495.5,0 -9,0"
         id="path9408"
         inkscape:connector-curvature="0"
         style="color:#000000;fill:none;stroke:#000000;stroke-width:1;stroke-linecap:butt;stroke-linejoin:miter" />
      <path
         d="m 70.5,16.7 9,0 m 495.5,0 -9,0"
         id="path9414"
         inkscape:connector-curvature="0"
         style="color:#000000;fill:none;stroke:#000000;stroke-width:1;stroke-linecap:butt;stroke-linejoin:miter" />
      <path
         d="m 70.5,444 0,-9 m 0,-418.3 0,9"
         id="path9420"
         inkscape:connector-curvature="0"
         style="color:#000000;fill:none;stroke:#000000;stroke-width:1;stroke-linecap:butt;stroke-linejoin:miter" />
      <path
         d="m 116.4,444 0,-9 m 0,-418.3 0,9"
         id="path9426"
         inkscape:connector-curvature="0"
         style="color:#000000;fill:none;stroke:#000000;stroke-width:1;stroke-linecap:butt;stroke-linejoin:miter" />
      <path
         d="m 162.2,444 0,-9 m 0,-418.3 0,9"
         id="path9432"
         inkscape:connector-curvature="0"
         style="color:#000000;fill:none;stroke:#000000;stroke-width:1;stroke-linecap:butt;stroke-linejoin:miter" />
      <path
         d="m 208.1,444 0,-9 m 0,-418.3 0,9"
         id="path9438"
         inkscape:connector-curvature="0"
         style="color:#000000;fill:none;stroke:#000000;stroke-width:1;stroke-linecap:butt;stroke-linejoin:miter" />
      <path
         d="m 254,444 0,-9 m 0,-418.3 0,9"
         id="path9444"
         inkscape:connector-curvature="0"
         style="color:#000000;fill:none;stroke:#000000;stroke-width:1;stroke-linecap:butt;stroke-linejoin:miter" />
      <path
         d="m 299.8,444 0,-9 m 0,-418.3 0,9"
         id="path9450"
         inkscape:connector-curvature="0"
         style="color:#000000;fill:none;stroke:#000000;stroke-width:1;stroke-linecap:butt;stroke-linejoin:miter" />
      <path
         d="m 345.7,444 0,-9 m 0,-418.3 0,9"
         id="path9456"
         inkscape:connector-curvature="0"
         style="color:#000000;fill:none;stroke:#000000;stroke-width:1;stroke-linecap:butt;stroke-linejoin:miter" />
      <path
         d="m 391.5,444 0,-9 m 0,-418.3 0,9"
         id="path9462"
         inkscape:connector-curvature="0"
         style="color:#000000;fill:none;stroke:#000000;stroke-width:1;stroke-linecap:butt;stroke-linejoin:miter" />
      <path
         d="m 437.4,444 0,-9 m 0,-418.3 0,9"
         id="path9468"
         inkscape:connector-curvature="0"
         style="color:#000000;fill:none;stroke:#000000;stroke-width:1;stroke-linecap:butt;stroke-linejoin:miter" />
      <path
         d="m 483.3,444 0,-9 m 0,-418.3 0,9"
         id="path9474"
         inkscape:connector-curvature="0"
         style="color:#000000;fill:none;stroke:#000000;stroke-width:1;stroke-linecap:butt;stroke-linejoin:miter" />
      <path
         d="m 529.1,444 0,-9 m 0,-418.3 0,9"
         id="path9480"
         inkscape:connector-curvature="0"
         style="color:#000000;fill:none;stroke:#000000;stroke-width:1;stroke-linecap:butt;stroke-linejoin:miter" />
      <path
         d="m 575,444 0,-9 m 0,-418.3 0,9"
         id="path9486"
         inkscape:connector-curvature="0"
         style="color:#000000;fill:none;stroke:#000000;stroke-width:1;stroke-linecap:butt;stroke-linejoin:miter" />
      <path
         d="m 70.5,16.7 0,427.3 504.5,0 0,-427.3 -504.5,0 z"
         id="path9492"
         inkscape:connector-curvature="0"
         style="color:#000000;fill:none;stroke:#000000;stroke-width:1;stroke-linecap:butt;stroke-linejoin:miter" />
      <path
         style="color:#ff0000;fill:none;stroke:#000000;stroke-width:1;stroke-linecap:butt;stroke-linejoin:miter;stroke-opacity:1"
         inkscape:connector-curvature="0"
         id="path9503"
         d="m 516.2,34.7 42.2,0 m -478.5,71.6 0.1,0 0.2,8.4 0.2,-8.4 0.2,0 0.2,0 0.2,8.4 0.1,0 0.2,-8.4 0.2,-16.7 0.2,0 0.2,16.7 0.2,8.4 0.1,-8.4 0.2,8.4 0.2,0 0.2,0 0.2,-8.4 0.2,-8.3 0.1,-16.8 0.2,8.4 0.2,33.5 0.2,-16.8 0.2,8.4 0.2,-25.1 0.1,-8.4 0.2,8.4 0.2,25.1 0.2,-8.4 0.2,-33.5 0.2,16.8 0.2,8.4 0.1,33.5 0.2,8.4 0.2,-41.9 0.2,-25.2 0.2,-8.3 0.2,41.8 0.1,16.8 0.2,-16.8 0.2,0 0.2,-33.5 0.2,16.8 0.2,33.5 0.1,16.8 0.2,-33.6 0.2,-25.1 0.2,8.4 0.2,25.1 0.2,0 0.1,0 0.2,-41.9 0.2,8.4 0.2,8.4 0.2,16.7 0.2,25.2 0.1,-25.2 0.2,0 0.2,-8.3 0.2,8.3 0.2,8.4 0.2,-8.4 0.1,-8.3 0.2,0 0.2,25.1 0.2,8.4 0.2,-25.2 0.2,-25.1 0.1,25.1 0.2,8.4 0.2,8.4 0.2,-16.8 0.2,-8.3 0.2,0 0.1,25.1 0.2,-16.8 0.2,0 0.2,-16.7 0.2,0 0.2,33.5 0.2,0 0.1,-41.9 0.2,-8.4 0.2,25.2 0.2,16.7 0.2,-16.7 0.2,-8.4 0.1,0 0.2,16.7 0.2,50.3 0.2,-8.4 0.2,-67 0.2,-8.4 0.1,25.2 0.2,41.9 0.2,8.3 0.2,-41.9 0.2,-8.3 0.2,0 0.1,16.7 0.2,-8.4 0.2,-25.1 0.2,0 0.2,0 0.2,41.9 0.1,8.4 0.2,-16.8 0.2,-16.7 0.2,-25.2 0.2,-16.7 0.2,33.5 0.1,8.4 0.2,0 0.2,0 0.2,8.3 0.2,16.8 0.2,0 0.1,-16.8 0.2,-33.5 0.2,0 0.2,50.3 0.2,8.4 0.2,-8.4 0.1,-8.4 0.2,-25.1 0.2,16.7 0.2,33.6 0.2,-16.8 0.2,-16.8 0.2,-25.1 0.1,16.8 0.2,8.3 0.2,-8.3 0.2,-16.8 0.2,0 0.2,25.1 0.1,33.6 0.2,-16.8 0.2,-33.5 0.2,-8.4 0.2,33.5 0.2,8.4 0.1,-8.4 0.2,-16.7 0.2,0 0.2,0 0.2,8.3 0.2,16.8 0.1,-8.4 0.2,-16.7 0.2,-8.4 0.2,25.1 0.2,16.8 0.2,-8.4 0.1,-8.4 0.2,-25.1 0.2,25.1 0.2,8.4 0.2,-8.4 0.2,-16.7 0.1,8.3 0.2,16.8 0.2,16.8 0.2,-16.8 0.2,-16.8 0.2,-16.7 0.1,0 0.2,41.9 0.2,-8.4 0.2,0 0.2,-16.8 0.2,8.4 0.1,0 0.2,0 0.2,-8.4 0.2,0 0.2,0 0.2,0 0.2,25.2 0.1,8.4 0.2,-25.2 0.2,-25.1 0.2,8.4 0.2,8.3 0.2,16.8 0.1,-8.4 0.2,0 0.2,-16.7 0.2,16.7 0.2,0 0.2,-25.1 0.1,0 0.2,8.4 0.2,0 0.2,8.3 0.2,16.8 0.2,8.4 0.1,-25.2 0.2,0 0.2,8.4 0.2,-8.4 0.2,-16.7 0.2,25.1 0.1,0 0.2,0 0.2,-16.7 0.2,-8.4 0.2,8.4 0.2,8.3 0.1,16.8 0.2,0 0.2,-16.8 0.2,-8.3 0.2,8.3 0.2,33.6 0.1,-33.6 0.2,-25.1 0.2,8.4 0.2,33.5 0.2,8.4 0.2,-16.8 0.1,-8.4 0.2,-8.3 0.2,25.1 0.2,-8.4 0.2,-8.4 0.2,-16.7 0.2,0 0.1,25.1 0.2,0 0.2,-8.4 0.2,-8.3 0.2,8.3 0.2,25.2 0.1,-25.2 0.2,0 0.2,0 0.2,16.8 0.2,-8.4 0.2,-8.4 0.1,-8.3 0.2,-8.4 0.2,33.5 0.2,8.4 0.2,-16.8 0.2,-25.1 0.1,25.1 0.2,8.4 0.2,-8.4 0.2,-33.5 0.2,8.4 0.2,8.4 0.1,25.1 0.2,0 0.2,-25.1 0.2,-16.8 0.2,0 0.2,16.8 0.1,0 0.2,0 0.2,-8.4 0.2,8.4 0.2,16.7 0.2,-16.7 0.1,-16.8 0.2,0 0.2,25.1 0.2,8.4 0.2,0 0.2,-16.7 0.1,-8.4 0.2,16.7 0.2,-8.3 0.2,-8.4 0.2,-8.4 0.2,25.1 0.2,16.8 0.1,0 0.2,-25.1 0.2,-8.4 0.2,0 0.2,25.1 0.2,16.8 0.1,-25.2 0.2,0 0.2,16.8 0.2,8.4 0.2,0 0.2,-16.8 0.1,-16.7 0.2,16.7 0.2,16.8 0.2,-16.8 0.2,8.4 0.2,8.4 0.1,0 0.2,-8.4 0.2,0 0.2,-16.8 0.2,0 0.2,25.2 0.1,-16.8 0.2,-25.1 0.2,0 0.2,8.4 0.2,0 0.2,8.3 0.1,0 0.2,0 0.2,25.2 0.2,16.7 0.2,-33.5 0.2,-8.4 0.1,-16.7 0.2,0 0.2,33.5 0.2,0 0.2,-16.8 0.2,-16.7 0.1,25.1 0.2,16.8 0.2,-8.4 0.2,-25.1 0.2,0 0.2,8.3 0.2,25.2 0.1,16.7 0.2,-33.5 0.2,-41.9 0.2,8.4 0.2,33.5 0.2,8.4 0.1,-8.4 0.2,0 0.2,0 0.2,0 0.2,-16.7 0.2,8.3 0.1,-8.3 0.2,-8.4 0.2,0 0.2,33.5 0.2,16.8 0.2,-41.9 0.1,0 0.2,16.7 0.2,0 0.2,8.4 0.2,-16.8 0.2,8.4 0.1,-8.4 0.2,16.8 0.2,-8.4 0.2,-8.4 0.2,0 0.2,-8.3 0.1,25.1 0.2,8.4 0.2,-25.2 0.2,-16.7 0.2,16.7 0.2,8.4 0.1,0 0.2,-8.4 0.2,-25.1 0.2,25.1 0.2,0 0.2,0 0.1,-16.7 0.2,8.4 0.2,16.7 0.2,0 0.2,-16.7 0.2,8.3 0.2,-8.3 0.1,8.3 0.2,8.4 0.2,-25.1 0.2,-16.8 0.2,25.2 0.2,8.3 0.1,-16.7 0.2,-16.8 0.2,25.2 0.2,8.3 0.2,16.8 0.2,8.4 0.1,-8.4 0.2,-16.8 0.2,-8.3 0.2,0 0.2,8.3 0.2,0 0.1,8.4 0.2,-8.4 0.2,-8.3 0.2,8.3 0.2,-25.1 0.2,16.8 0.1,33.5 0.2,-33.5 0.2,16.7 0.2,16.8 0.2,-16.8 0.2,0 0.1,-25.1 0.2,8.4 0.2,8.3 0.2,8.4 0.2,0 0.2,-16.7 0.1,16.7 0.2,0 0.2,0 0.2,8.4 0.2,-8.4 0.2,-8.4 0.1,-8.3 0.2,0 0.2,16.7 0.2,0 0.2,-8.4 0.2,0 0.2,-8.3 0.1,16.7 0.2,-8.4 0.2,16.8 0.2,-33.5 0.2,0 0.2,8.4 0.1,-8.4 0.2,8.4 0.2,25.1 0.2,-16.8 0.2,8.4 0.2,-25.1 0.1,0 0.2,16.7 0.2,25.2 0.2,25.1 0.2,33.5 0.2,25.2 0.1,8.3 0.2,58.7 0.2,41.9 0.2,16.7 0.2,16.8 0.2,-8.4 0.1,25.2 0.2,16.7 0.2,-16.7 0.2,-16.8 0.2,16.8 0.2,16.7 0.1,25.2 0.2,0 0.2,-16.8 0.2,-50.3 0.2,16.8 0.2,25.1 0.1,-8.4 0.2,-25.1 0.2,0 0.2,25.1 0.2,33.6 0.2,0 0.1,-33.6 0.2,-41.9 0.2,16.8 0.2,41.9 0.2,8.4 0.2,-25.2 0.2,-50.2 0.1,8.3 0.2,33.6 0.2,8.3 0.2,-33.5 0.2,-16.7 0.2,-25.2 0.1,50.3 0.2,8.4 0.2,-16.8 0.2,-33.5 0.2,8.4 0.2,33.5 0.1,25.1 0.2,-33.5 0.2,-41.9 0.2,16.8 0.2,8.4 0.2,16.7 0.1,-8.4 0.2,-33.5 0.2,8.4 0.2,16.8 0.2,8.3 0.2,-16.7 0.1,-33.5 0.2,-16.8 0.2,16.8 0.2,25.1 0.2,16.8 0.2,-8.4 0.1,-41.9 0.2,-16.8 0.2,41.9 0.2,8.4 0.2,-33.5 0.2,-25.1 0.1,-16.8 0.2,50.3 0.2,50.2 0.2,-16.7 0.2,-58.7 0.2,-41.9 0.1,50.3 0.2,41.9 0.2,-8.4 0.2,-50.2 0.2,-16.8 0.2,-8.4 0.2,50.3 0.1,50.3 0.2,-50.3 0.2,-58.7 0.2,0 0.2,58.7 0.2,16.8 0.1,-8.4 0.2,-83.8 0.2,-25.1 0.2,75.4 0.2,75.4 0.2,-33.5 0.1,-83.8 0.2,-16.8 0.2,41.9 0.2,58.7 0.2,0 0.2,-67.1 0.1,-58.6 0.2,33.5 0.2,58.6 0.2,33.6 0.2,-41.9 0.2,-58.7 0.1,16.8 0.2,58.6 0.2,8.4 0.2,-67 0.2,-41.9 0.2,16.7 0.1,67.1 0.2,-8.4 0.2,-8.4 0.2,-33.5 0.2,-8.4 0.2,41.9 0.1,8.4 0.2,-8.4 0.2,-41.9 0.2,8.4 0.2,25.1 0.2,8.4 0.1,-8.4 0.2,-33.5 0.2,-8.4 0.2,8.4 0.2,16.8 0.2,-8.4 0.2,-16.8 0.1,0 0.2,16.8 0.2,-8.4 0.2,25.1 0.2,-16.7 0.2,-16.8 0.1,8.4 0.2,25.1 0.2,-16.7 0.2,-16.8 0.2,-25.1 0.2,8.4 0.1,41.9 0.2,16.7 0.2,-16.7 0.2,-33.5 0.2,-16.8 0.2,25.1 0.1,16.8 0.2,-8.4 0.2,-33.5 0.2,0 0.2,33.5 0.2,33.5 0.1,-33.5 0.2,-33.5 0.2,0 0.2,41.9 0.2,16.7 0.2,-25.1 0.1,-33.5 0.2,-16.8 0.2,8.4 0.2,50.3 0.2,0 0.2,-25.1 0.1,-16.8 0.2,0 0.2,16.8 0.2,16.7 0.2,-16.7 0.2,-16.8 0.1,0 0.2,0 0.2,8.4 0.2,8.4 0.2,-8.4 0.2,-8.4 0.2,8.4 0.1,-8.4 0.2,8.4 0.2,0 0.2,0 0.2,-25.2 0.2,0 0.1,8.4 0.2,33.5 0.2,-16.7 0.2,-16.8 0.2,-8.4 0.2,16.8 0.1,0 0.2,-16.8 0.2,25.2 0.2,0 0.2,0 0.2,-8.4 0.1,-25.1 0.2,0 0.2,25.1 0.2,16.8 0.2,-8.4 0.2,-33.5 0.1,-8.4 0.2,25.1 0.2,16.8 0.2,-8.4 0.2,-33.5 0.2,0 0.1,50.3 0.2,0 0.2,-33.6 0.2,-8.3 0.2,-8.4 0.2,33.5 0.1,16.8 0.2,-33.6 0.2,-16.7 0.2,-8.4 0.2,33.5 0.2,16.8 0.1,-8.4 0.2,-33.5 0.2,8.4 0.2,16.7 0.2,8.4 0.2,-16.8 0.2,-16.7 0.1,-8.4 0.2,16.8 0.2,25.1 0.2,-16.8 0.2,-8.3 0.2,25.1 0.1,-16.8 0.2,8.4 0.2,8.4 0.2,-33.5 0.2,0 0.2,8.4 0.1,-8.4 0.2,16.7 0.2,-8.3 0.2,0 0.2,-8.4 0.2,0 0.1,0 0.2,16.7 0.2,-8.3 0.2,-16.8 0.2,16.8 0.2,16.7 0.1,0 0.2,-16.7 0.2,-8.4 0.2,0 0.2,8.4 0.2,16.7 0.1,-8.4 0.2,-33.5 0.2,0 0.2,25.2 0.2,8.3 0.2,-8.3 0.1,-25.2 0.2,8.4 0.2,33.5 0.2,16.8 0.2,-16.8 0.2,-50.3 0.1,8.4 0.2,25.2 0.2,33.5 0.2,-8.4 0.2,-50.3 0.2,8.4 0.2,33.5 0.1,8.4 0.2,-8.4 0.2,-41.9 0.2,-16.7 0.2,41.9 0.2,41.9 0.1,0 0.2,-41.9 0.2,-25.2 0.2,0 0.2,16.8 0.2,16.7 0.1,-16.7 0.2,-25.2 0.2,0 0.2,41.9 0.2,0 0.2,-33.5 0.1,-8.4 0.2,0 0.2,16.8 0.2,16.8 0.2,-8.4 0.2,-16.8 0.1,0 0.2,25.2 0.2,-16.8 0.2,0 0.2,-16.8 0.2,-16.7 0.1,33.5 0.2,33.5 0.2,-8.4 0.2,-25.1 0.2,-16.8 0.2,16.8 0.1,16.8 0.2,-16.8 0.2,-16.8 0.2,0 0.2,16.8 0.2,16.8 0.1,0 0.2,-8.4 0.2,-33.5 0.2,25.1 0.2,8.4 0.2,8.4 0.2,-8.4 0.1,-25.2 0.2,0 0.2,25.2 0.2,0 0.2,-33.5 0.2,0 0.1,0 0.2,41.9 0.2,16.7 0.2,-16.7 0.2,-58.7 0.2,-8.4 0.1,67.1 0.2,0 0.2,-16.8 0.2,-25.1 0.2,0 0.2,33.5 0.1,25.1 0.2,-50.3 0.2,-25.1 0.2,8.4 0.2,58.6 0.2,-8.3 0.1,-16.8 0.2,-16.8 0.2,0 0.2,33.6 0.2,0 0.2,-25.2 0.1,-16.7 0.2,0 0.2,33.5 0.2,8.4 0.2,-33.6 0.2,0 0.1,8.4 0.2,8.4 0.2,8.4 0.2,-16.8 0.2,0 0.2,16.8 0.1,0 0.2,0 0.2,-50.3 0.2,8.4 0.2,41.9 0.2,0 0.2,-16.8 0.1,-16.7 0.2,0 0.2,8.3 0.2,25.2 0.2,8.4 0.2,-16.8 0.1,-25.1 0.2,16.7 0.2,33.5 0.2,-8.3 0.2,-33.6 0.2,-16.7 0.1,8.4 0.2,16.7 0.2,8.4 0.2,-8.4 0.2,16.8 0.2,-25.2 0.1,-8.3 0.2,33.5 0.2,16.7 0.2,-16.7 0.2,-25.2 0.2,0 0.1,25.2 0.2,16.7 0.2,-25.1 0.2,-33.5 0.2,0 0.2,25.1 0.1,25.2 0.2,0 0.2,-16.8 0.2,-25.1 0.2,-8.4 0.2,25.1 0.1,0 0.2,-16.7 0.2,-16.8 0.2,16.8 0.2,25.1 0.2,8.4 0.1,-25.2 0.2,-25.1 0.2,8.4 0.2,25.1 0.2,8.4 0.2,-8.4 0.2,8.4 0.1,0 0.2,8.4 0.2,-8.4 0.2,-16.8 0.2,-8.3 0.2,-8.4 0.1,25.1 0.2,0 0.2,0 0.2,-16.7 0.2,8.3 0.2,0 0.1,0 0.2,0 0.2,0 0.2,16.8 0.2,16.8 0.2,8.3 0.1,-41.9 0.2,-16.7 0.2,8.4 0.2,0 0.2,8.3 0.2,8.4 0.1,-8.4 0.2,8.4 0.2,-8.4 0.2,-8.3 0.2,-16.8 0.2,41.9 0.1,-16.8 0.2,0 0.2,8.4 0.2,16.8 0.2,-8.4 0.2,-41.9 0.1,-8.4 0.2,8.4 0.2,25.1 0.2,16.8 0.2,-16.8 0.2,-16.7 0.1,0 0.2,16.7 0.2,16.8 0.2,-33.5 0.2,0 0.2,16.7 0.2,25.2 0.1,-8.4 0.2,-8.4 0.2,-33.5 0.2,8.4 0.2,33.5 0.2,-8.4 0.1,-16.7 0.2,-8.4 0.2,25.1 0.2,8.4 0.2,0 0.2,-25.1 0.1,-25.2 0.2,8.4 0.2,33.5 0.2,-8.4 0.2,-8.3 0.2,0 0.1,16.7 0.2,0 0.2,-8.4 0.2,-50.2 0.2,25.1 0.2,50.3 0.1,16.7 0.2,-16.7 0.2,-50.3 0.2,0 0.2,25.1 0.2,33.6 0.1,-8.4 0.2,-25.2 0.2,-16.7 0.2,8.4 0.2,33.5 0.2,0 0.1,-25.2 0.2,-33.5 0.2,8.4 0.2,25.1 0.2,25.2 0.2,-8.4 0.1,-33.5 0.2,-25.1 0.2,16.7 0.2,33.5 0.2,8.4 0.2,-8.4 0.2,-25.1 0.1,0 0.2,41.9 0.2,0 0.2,-33.5 0.2,-33.5 0.2,8.3 0.1,33.5 0.2,50.3 0.2,-25.1 0.2,-41.9 0.2,-25.1 0.2,25.1 0.1,25.1 0.2,-16.7 0.2,-16.8 0.2,8.4 0.2,33.5 0.2,8.4 0.1,-8.4 0.2,-25.1 0.2,-33.5 0.2,25.1 0.2,16.7 0.2,25.2 0.1,-16.8 0.2,-25.1 0.2,8.4 0.2,8.3 0.2,0 0.2,-25.1 0.1,0 0.2,16.8 0.2,25.1 0.2,8.4 0.2,-25.2 0.2,-16.7 0.1,-16.8 0.2,33.5 0.2,16.8 0.2,0 0.2,-25.1 0.2,-16.8 0.1,8.4 0.2,33.5 0.2,0 0.2,-41.9 0.2,-16.7 0.2,41.8 0.2,33.6 0.1,0 0.2,-41.9 0.2,-33.5 0.2,25.1 0.2,33.5 0.2,16.8 0.1,-50.3 0.2,-33.5 0.2,25.1 0.2,50.3 0.2,-8.4 0.2,-41.9 0.1,-33.5 0.2,50.3 0.2,67 0.2,-25.1 0.2,-50.3 0.2,-25.1 0.1,25.1 0.2,50.3 0.2,-8.4 0.2,-25.2 0.2,-41.8 0.2,33.5 0.1,41.9 0.2,-16.8 0.2,-25.1 0.2,-16.8 0.2,33.5 0.2,8.4 0.1,8.4 0.2,-33.5 0.2,-8.4 0.2,25.1 0.2,25.2 0.2,8.3 0.1,-67 0.2,-16.7 0.2,33.5 0.2,33.5 0.2,0 0.2,-41.9 0.1,-8.4 0.2,0 0.2,33.5 0.2,25.2 0.2,-33.6 0.2,-25.1 0.2,25.1 0.1,16.8 0.2,16.8 0.2,-8.4 0.2,-25.2 0.2,-33.5 0.2,16.8 0.1,50.3 0.2,-16.8 0.2,0 0.2,-33.5 0.2,-33.5 0.2,33.5 0.1,50.3 0.2,-16.8 0.2,-41.9 0.2,0 0.2,33.5 0.2,33.5 0.1,0 0.2,-41.9 0.2,-58.6 0.2,33.5 0.2,58.7 0.2,25.1 0.1,-33.5 0.2,-75.4 0.2,16.7 0.2,50.3 0.2,33.5 0.2,-58.6 0.1,-58.7 0.2,41.9 0.2,58.7 0.2,16.7 0.2,-41.9 0.2,-41.9 0.1,0 0.2,33.5 0.2,41.9 0.2,-16.7 0.2,-25.2 0.2,8.4 0.1,0 0.2,33.5 0.2,-16.7 0.2,-50.3 0.2,-8.4 0.2,41.9 0.2,16.8 0.1,0 0.2,-50.3 0.2,-8.4 0.2,25.2 0.2,16.7 0.2,8.4 0.1,-16.8 0.2,-8.3 0.2,0 0.2,33.5 0.2,-8.4 0.2,-25.1 0.1,0 0.2,8.3 0.2,16.8 0.2,-8.4 0.2,0 0.2,-16.7 0.1,-16.8 0.2,8.4 0.2,33.5 0.2,0 0.2,-16.8 0.2,-33.5 0.1,16.8 0.2,33.5 0.2,25.1 0.2,-16.7 0.2,-41.9 0.2,8.4 0.1,33.5 0.2,8.4 0.2,-16.8 0.2,-25.1 0.2,0 0.2,25.1 0.1,8.4 0.2,-16.8 0.2,-33.5 0.2,8.4 0.2,16.7 0.2,8.4 0.1,25.2 0.2,-25.2 0.2,-33.5 0.2,8.4 0.2,16.7 0.2,8.4 0.2,-25.1 0.1,16.7 0.2,8.4 0.2,8.4 0.2,-16.8 0.2,0 0.2,-8.3 0.1,0 0.2,0 0.2,-8.4 0.2,16.7 0.2,8.4 0.2,0 0.1,-16.7 0.2,0 0.2,8.3 0.2,-8.3 0.2,0 0.2,16.7 0.1,0 0.2,8.4 0.2,-16.8 0.2,8.4 0.2,-8.4 0.2,-8.3 0.1,-8.4 0.2,8.4 0.2,16.7 0.2,-8.4 0.2,0 0.2,-8.3 0.1,-16.8 0.2,8.4 0.2,8.4 0.2,8.3 0.2,8.4 0.2,-25.1 0.1,-16.8 0.2,33.5 0.2,16.8 0.2,8.4 0.2,-33.5 0.2,-8.4 0.2,25.1 0.1,8.4 0.2,0 0.2,-33.5 0.2,-8.4 0.2,8.4 0.2,25.1 0.1,8.4 0.2,-25.1 0.2,-16.8 0.2,16.8 0.2,16.7 0.2,0 0.1,-8.4 0.2,-16.7 0.2,0 0.2,16.7 0.2,25.2 0.2,-25.2 0.1,-16.7 0.2,0 0.2,8.4 0.2,8.3 0.2,0 0.2,-8.3 0.1,-16.8 0.2,33.5 0.2,0 0.2,-16.7 0.2,8.3 0.2,0 0.1,8.4 0.2,0 0.2,-25.1 0.2,8.4 0.2,25.1 0.2,0 0.1,-16.8 0.2,-16.7 0.2,0 0.2,8.4 0.2,25.1 0.2,-16.8 0.1,-8.3 0.2,0 0.2,0 0.2,25.1 0.2,-8.4 0.2,-33.5 0.2,-16.7 0.1,33.5 0.2,33.5 0.2,-33.5 0.2,-16.8 0.2,0 0.2,25.1 0.1,-8.3 0.2,25.1 0.2,-16.8 0.2,-16.7 0.2,0 0.2,0 0.1,8.4 0.2,-8.4 0.2,0 0.2,8.4 0.2,0 0.2,-25.2 0.1,25.2 0.2,0 0.2,0 0.2,-8.4 0.2,-16.8 0.2,0 0.1,25.2 0.2,8.3 0.2,8.4 0.2,-16.7 0.2,0 0.2,8.3 0.1,0 0.2,-8.3 0.2,-8.4 0.2,8.4 0.2,0 0.2,16.7 0.1,-8.4 0.2,-8.3 0.2,-8.4 0.2,16.7 0.2,16.8 0.2,0 0.1,-16.8 0.2,0 0.2,0 0.2,-16.7 0.2,8.4 0.2,8.3 0.2,8.4 0.1,-8.4 0.2,-16.7 0.2,16.7 0.2,8.4 0.2,0 0.2,0 0.1,0 0.2,0 0.2,8.4 0.2,-16.8 0.2,8.4 0.2,-8.4 0.1,0 0.2,16.8 0.2,16.8 0.2,-25.2 0.2,-16.7 0.2,16.7 0.1,16.8 0.2,-8.4 0.2,-8.4 0.2,-25.1 0.2,16.7 0.2,16.8 0.1,-16.8 0.2,0 0.2,-16.7 0.2,33.5 0.2,8.4 0.2,-16.8 0.1,-16.7 0.2,-16.8 0.2,25.1 0.2,16.8 0.2,8.4 0.2,-16.8 0.1,-16.7 0.2,8.3 0.2,8.4 0.2,8.4 0.2,-8.4 0.2,0 0.1,8.4 0.2,16.8 0.2,-8.4 0.2,-33.5 0.2,0 0.2,8.3 0.2,16.8 0.1,-16.8 0.2,-8.3 0.2,8.3 0.2,0 0.2,0 0.2,8.4 0.1,0 0.2,-25.1 0.2,-16.8 0.2,16.8 0.2,25.1 0.2,16.8 0.1,-33.5 0.2,0 0.2,0 0.2,8.3 0.2,0 0.2,0 0.1,0 0.2,0 0.2,0 0.2,16.8 0.2,-16.8 0.2,-16.7 0.1,8.4 0.2,33.5 0.2,16.7 0.2,-33.5 0.2,-16.7 0.2,16.7 0.1,0 0.2,16.8 0.2,-16.8 0.2,-25.1 0.2,8.4 0.2,16.7 0.1,16.8 0.2,-8.4 0.2,-8.4 0.2,-16.7 0.2,0 0.2,16.7 0.1,-8.4 0.2,16.8 0.2,-8.4 0.2,0 0.2,8.4 0.2,-8.4 0.2,-25.1 0.1,0 0.2,0 0.2,33.5 0.2,8.4 0.2,-8.4 0.2,-33.5 0.1,-8.4 0.2,16.8 0.2,25.1 0.2,8.4 0.2,-33.5 0.2,-16.8 0.1,16.8 0.2,25.1 0.2,8.4 0.2,-25.2 0.2,-8.3 0.2,-8.4 0.1,16.7 0.2,16.8 0.2,-8.4 0.2,-25.1 0.2,0 0.2,8.4 0.1,33.5 0.2,-8.4 0.2,-16.8 0.2,-16.7 0.2,16.7 0.2,16.8 0.1,0 0.2,-16.8 0.2,-25.1 0.2,0 0.2,33.5 0.2,0 0.1,-8.4 0.2,8.4 0.2,-16.7 0.2,0 0.2,8.3 0.2,8.4 0.1,-25.1 0.2,-8.4 0.2,41.9 0.2,8.4 0.2,-16.8 0.2,-8.4 0.2,-16.7 0.1,0 0.2,0 0.2,8.4 0.2,16.7 0.2,0 0.2,0 0.1,-16.7 0.2,0 0.2,8.3 0.2,8.4 0.2,-16.7 0.2,16.7 0.1,8.4 0.2,-25.1 0.2,8.3 0.2,0 0.2,0 0.2,-8.3 0.1,-8.4 0.2,0 0.2,33.5 0.2,0 0.2,0 0.2,-8.4 0.1,-16.7 0.2,16.7 0.2,-8.4 0.2,25.2 0.2,-25.2 0.2,-8.3 0.1,0 0.2,8.3 0.2,-8.3 0.2,8.3 0.2,0 0.2,-8.3 0.1,0 0.2,0 0.2,-8.4 0.2,-8.4 0.2,8.4 0.2,0 0.1,16.7 0.2,25.2 0.2,16.7 0.2,-8.3 0.2,-50.3 0.2,-16.8 0.2,33.5 0.1,0 0.2,8.4 0.2,-25.1 0.2,0 0.2,25.1 0.2,16.8 0.1,-25.2 0.2,-16.7 0.2,0 0.2,16.7 0.2,25.2 0.2,-16.8 0.1,-25.1 0.2,8.4 0.2,8.3 0.2,0 0.2,0 0.2,-16.7 0.1,-25.1 0.2,33.5 0.2,25.1 0.2,0 0.2,-16.8 0.2,25.2 0.1,0 0.2,0 0.2,-25.2 0.2,-16.7 0.2,0 0.2,25.1 0.1,-8.4 0.2,-8.3 0.2,-16.8 0.2,16.8 0.2,16.7 0.2,-8.4 0.1,-8.3 0.2,8.3 0.2,8.4 0.2,16.8 0.2,-33.5 0.2,-16.8 0.1,16.8 0.2,16.7 0.2,-8.4 0.2,0 0.2,0 0.2,-8.3 0.2,0 0.1,25.1 0.2,-16.8 0.2,0 0.2,16.8 0.2,0 0.2,-8.4 0.1,-25.1 0.2,8.4 0.2,16.7 0.2,-8.4 0.2,0 0.2,-25.1 0.1,16.8 0.2,33.5 0.2,-16.8 0.2,-25.1 0.2,0 0.2,-8.4 0.1,8.4 0.2,16.7 0.2,-25.1 0.2,0 0.2,16.8 0.2,16.7 0.1,0 0.2,-25.1 0.2,0 0.2,-8.4 0.2,33.5 0.2,8.4 0.1,0 0.2,-16.8 0.2,8.4 0.2,-25.1 0.2,0 0.2,50.3 0.1,-25.2 0.2,-50.2 0.2,8.3 0.2,16.8 0.2,16.7 0.2,-16.7 0.1,16.7 0.2,-16.7 0.2,16.7 0.2,16.8 0.2,8.4 0.2,-16.8 0.2,-41.9 0.1,16.8 0.2,25.1 0.2,8.4 0.2,0 0.2,0 0.2,0 0.1,0 0.2,8.4 0.2,-16.8 0.2,-25.1 0.2,16.7 0.2,8.4 0.1,-8.4 0.2,8.4 0.2,8.4 0.2,-8.4 0.2,0 0.2,8.4 0.1,-25.1 0.2,8.3 0.2,16.8 0.2,8.4 0.2,-33.5 0.2,8.3 0.1,25.2 0.2,-8.4 0.2,-8.4 0.2,-8.4 0.2,-16.7 0.2,8.4 0.1,33.5 0.2,-8.4 0.2,-25.1 0.2,-16.8 0.2,8.4 0.2,0 0.1,16.7 0.2,0 0.2,8.4 0.2,-8.4 0.2,0 0.2,0 0.1,-8.3 0.2,0 0.2,0 0.2,25.1 0.2,8.4 0.2,-8.4 0.2,-8.4 0.1,0 0.2,0 0.2,8.4 0.2,8.4 0.2,0 0.2,0 0.1,-33.5 0.2,-8.4 0.2,0 0.2,16.7 0.2,0 0.2,0 0.1,0 0.2,8.4 0.2,0 0.2,-8.4 0.2,-25.1 0.2,16.8 0.1,8.3 0.2,-8.3 0.2,8.3 0.2,25.2 0.2,-8.4 0.2,-16.8 0.1,-8.3 0.2,0 0.2,-8.4 0.2,0 0.2,8.4 0.2,16.7 0.1,16.8 0.2,-8.4 0.2,-25.1 0.2,-8.4 0.2,16.7 0.2,-16.7 0.1,0 0.2,25.1 0.2,16.8 0.2,-16.8 0.2,-33.5 0.2,-8.4 0.1,8.4 0.2,41.9 0.2,0 0.2,-8.4 0.2,0 0.2,0 0.2,8.4 0.1,-16.8 0.2,8.4 0.2,0 0.2,-8.4 0.2,8.4 0.2,-8.4 0.1,16.8 0.2,-8.4 0.2,-25.1 0.2,33.5 0.2,-8.4 0.2,0 0.1,8.4 0.2,-16.8 0.2,8.4 0.2,25.2 0.2,0 0.2,-33.6 0.1,-8.3 0.2,8.3 0.2,16.8 0.2,8.4 0.2,0 0.2,-8.4 0.1,-25.1 0.2,-8.4 0.2,16.7 0.2,0 0.2,-8.3 0.2,0 0.1,8.3 0.2,16.8 0.2,0 0.2,-25.1 0.2,-16.8 0.2,16.8 0.1,16.7 0.2,0 0.2,-8.4 0.2,0 0.2,-8.3 0.2,16.7 0.1,-8.4 0.2,-8.3 0.2,-8.4 0.2,-8.4 0.2,33.5 0.2,0 0.2,8.4 0.1,-33.5 0.2,-8.4 0.2,8.4 0.2,41.9 0.2,0 0.2,-25.2 0.1,-25.1 0.2,16.8 0.2,41.9 0.2,-16.8 0.2,-41.9 0.2,-8.4 0.1,25.2 0.2,25.1 0.2,16.8 0.2,-33.6 0.2,-33.5 0.2,16.8 0.1,25.1 0.2,25.2 0.2,-41.9 0.2,8.3 0.2,0 0.2,8.4 0.1,33.5 0.2,-16.7 0.2,-50.3 0.2,-16.7 0.2,58.6 0.2,16.8 0.1,8.3 0.2,-41.9 0.2,-25.1 0.2,8.4 0.2,50.3 0.2,16.7 0.1,-41.9 0.2,-41.9 0.2,16.8 0.2,41.9 0.2,25.1 0.2,-25.1 0.1,-67 0.2,-8.4 0.2,67 0.2,41.9 0.2,-25.1 0.2,-50.3 0.2,-16.8 0.1,41.9 0.2,33.5 0.2,-25.1 0.2,-41.9 0.2,-8.4 0.2,41.9 0.1,41.9 0.2,-8.4 0.2,-50.2 0.2,-41.9 0.2,41.9 0.2,33.5 0.1,8.4 0.2,-33.6 0.2,-25.1 0.2,16.8 0.2,41.9 0.2,-16.8 0.1,-41.9 0.2,0 0.2,0 0.2,25.1 0.2,0 0.2,0 0.1,-16.7 0.2,8.4 0.2,8.3 0.2,-8.3 0.2,0 0.2,0 0.1,8.3 0.2,8.4 0.2,8.4 0.2,0 0.2,-16.8 0.2,-25.1 0.1,8.4 0.2,16.7 0.2,8.4 0.2,0 0.2,-8.4 0.2,-16.7 0.1,8.4 0.2,0 0.2,-8.4 0.2,0 0.2,-8.4 0.2,33.5 0.2,16.8 0.1,0 0.2,-41.9 0.2,-8.4 0.2,25.1 0.2,16.8 0.2,0 0.1,-41.9 0.2,25.1 0.2,16.8 0.2,8.4 0.2,-8.4 0.2,-33.5 0.1,0 0.2,33.5 0.2,25.1 0.2,-16.7 0.2,-41.9 0.2,-33.5 0.1,8.4 0.2,50.2 0.2,0 0.2,-33.5 0.2,16.8 0.2,8.3 0.1,0 0.2,8.4 0.2,-8.4 0.2,-16.7 0.2,-8.4 0.2,25.1 0.1,8.4 0.2,0 0.2,-8.4 0.2,8.4 0.2,0 0.2,0 0.1,0 0.2,-8.4 0.2,-8.3 0.2,-8.4 0.2,16.7 0.2,0 0.1,0 0.2,-16.7 0.2,0 0.2,33.5 0.2,0 0.2,-16.8 0.2,-16.7 0.1,8.4 0.2,0 0.2,8.3 0.2,0 0.2,-33.5 0.2,0 0.1,33.5 0.2,16.8 0.2,-8.4 0.2,-16.7 0.2,-16.8 0.2,8.4 0.1,25.1 0.2,0 0.2,-25.1 0.2,-16.8 0.2,33.5 0.2,16.8 0.1,-33.5 0.2,-8.4 0.2,8.4 0.2,25.1 0.2,25.2 0.2,-33.6 0.1,-25.1 0.2,-16.7 0.2,33.5 0.2,33.5 0.2,-16.8 0.2,-16.7 0.1,-16.8 0.2,25.1 0.2,8.4 0.2,8.4 0.2,-25.1 0.2,0 0.1,8.3 0.2,8.4 0.2,-8.4 0.2,-25.1 0.2,16.8 0.2,8.3 0.1,0 0.2,-8.3 0.2,-25.2 0.2,16.8 0.2,25.1 0.2,-16.7 0.2,0 0.1,8.3 0.2,8.4 0.2,-16.7 0.2,0 0.2,-16.8 0.2,8.4 0.1,-8.4 0.2,25.1 0.2,0 0.2,-8.3 0.2,0 0.2,0 0.1,8.3 0.2,0 0.2,0 0.2,-16.7 0.2,8.4 0.2,-8.4 0.1,0 0.2,0 0.2,16.7 0.2,16.8 0.2,-33.5 0.2,8.4 0.1,0 0.2,16.7 0.2,-25.1 0.2,-8.4 0.2,-8.4 0.2,25.2 0.1,33.5 0.2,-16.8 0.2,-41.9 0.2,0 0.2,41.9 0.2,8.4 0.1,-16.8 0.2,-33.5 0.2,-25.1 0.2,50.3 0.2,50.2 0.2,-33.5 0.1,-33.5 0.2,-16.7 0.2,33.5 0.2,8.3 0.2,0 0.2,-16.7 0.2,0 0.1,8.4 0.2,8.3 0.2,0 0.2,-16.7 0.2,-16.8 0.2,16.8 0.1,16.7 0.2,16.8 0.2,0 0.2,-16.8 0.2,-25.1 0.2,25.1 0.1,16.8 0.2,-16.8 0.2,8.4 0.2,0 0.2,-16.7 0.2,8.3 0.1,16.8 0.2,-16.8 0.2,-8.3 0.2,0 0.2,16.7 0.2,0 0.1,-8.4 0.2,-8.3 0.2,16.7 0.2,-8.4 0.2,-16.7 0.2,8.4 0.1,-16.8 0.2,0 0.2,25.1 0.2,8.4 0.2,-8.4 0.2,-16.7 0.1,-8.4 0.2,25.1 0.2,25.2 0.2,-33.5 0.2,-41.9 0.2,25.1 0.1,67 0.2,0 0.2,-50.2 0.2,-33.5 0.2,8.3 0.2,50.3 0.2,8.4 0.1,-16.8 0.2,-50.2 0.2,33.5 0.2,8.3 0.2,-16.7 0.2,-8.4 0.1,0 0.2,25.1 0.2,8.4 0.2,-16.7 0.2,-8.4 0.2,-8.4 0.1,8.4 0.2,25.1 0.2,-8.4 0.2,0 0.2,-16.7 0.2,8.4 0.1,16.7 0.2,-16.7 0.2,-8.4 0.2,0 0.2,25.1 0.2,8.4 0.1,-8.4 0.2,-50.2 0.2,16.7 0.2,25.1 0.2,25.2 0.2,-50.3 0.1,-8.4 0.2,8.4 0.2,33.5 0.2,25.2 0.2,-8.4 0.2,-33.5 0.1,-33.5 0.2,41.8 0.2,8.4 0.2,-16.7 0.2,-8.4 0.2,0 0.1,16.7 0.2,16.8 0.2,8.4 0.2,-33.5 0.2,-25.2 0.2,33.5 0.2,-8.3 0.1,0 0.2,-8.4 0.2,8.4 0.2,8.3 0.2,-16.7 0.2,8.4 0.1,8.3 0.2,0 0.2,0 0.2,-8.3 0.2,25.1 0.2,8.4 0.1,-16.8 0.2,-41.9 0.2,0 0.2,16.8 0.2,25.1 0.2,-8.4 0.1,0 0.2,-8.3 0.2,8.3 0.2,0 0.2,0 0.2,-25.1 0.1,-8.4 0.2,16.8 0.2,8.4 0.2,8.3 0.2,-16.7 0.2,0 0.1,16.7 0.2,0 0.2,-8.3 0.2,-16.8 0.2,0 0.2,25.1 0.1,25.2 0.2,-16.8 0.2,-25.1 0.2,0 0.2,8.4 0.2,8.3 0.1,8.4 0.2,-8.4 0.2,-8.3 0.2,0 0.2,16.7 0.2,-16.7 0.2,0 0.1,-8.4 0.2,25.1 0.2,8.4 0.2,-16.8 0.2,-16.7 0.2,0 0.1,-8.4 0.2,16.8 0.2,8.3 0.2,8.4 0.2,-8.4 0.2,0 0.1,0 0.2,-8.3 0.2,16.7 0.2,0 0.2,-16.7 0.2,-8.4 0.1,16.7 0.2,16.8 0.2,8.4 0.2,-33.5 0.2,-8.4 0.2,8.4 0.1,16.7 0.2,0 0.2,-25.1 0.2,-8.4 0.2,16.8 0.2,25.1 0.1,-8.4 0.2,-33.5 0.2,8.4 0.2,8.4 0.2,25.1 0.2,-8.4 0.1,-41.9 0.2,0 0.2,41.9 0.2,0 0.2,-8.4 0.2,-16.7 0.1,0 0.2,41.9 0.2,-8.4 0.2,-33.5 0.2,-25.1 0.2,16.7 0.2,25.1 0.1,25.2 0.2,-25.2 0.2,-25.1 0.2,16.8 0.2,25.1 0.2,8.4 0.1,0 0.2,-58.7 0.2,0 0.2,41.9 0.2,8.4 0.2,-8.4 0.1,-16.7 0.2,-16.8 0.2,33.5 0.2,8.4 0.2,-8.4 0.2,-25.1 0.1,-16.8 0.2,41.9 0.2,33.5 0.2,-8.3 0.2,-33.6 0.2,-16.7 0.1,0 0.2,0 0.2,16.7 0.2,8.4 0.2,-16.7 0.2,-41.9 0.1,16.7 0.2,41.9 0.2,8.4 0.2,-33.5 0.2,-8.4 0.2,0 0.1,50.3 0.2,0 0.2,-25.2 0.2,-50.2 0.2,8.4 0.2,41.8 0.1,25.2 0.2,-16.8 0.2,-33.5 0.2,0 0.2,50.3 0.2,0 0.2,-33.5 0.1,-33.5 0.2,-8.4 0.2,41.9 0.2,58.6 0.2,-8.4 0.2,-67 0.1,-25.1 0.2,33.5 0.2,33.5 0.2,0 0.2,-16.8 0.2,-16.7 0.1,25.1 0.2,16.8 0.2,-8.4 0.2,-41.9 0.2,0 0.2,8.4 0.1,25.1 0.2,25.2 0.2,-25.2 0.2,-50.2 0.2,0 0.2,67 0.1,16.7 0.2,-50.2 0.2,-25.2 0.2,0 0.2,50.3 0.2,16.8 0.1,-41.9 0.2,-50.3 0.2,16.8 0.2,67 0.2,16.7 0.2,-25.1 0.1,-50.3 0.2,0 0.2,33.5 0.2,25.2 0.2,-16.8 0.2,-58.6 0.1,-8.4 0.2,50.3 0.2,25.1 0.2,8.4 0.2,-41.9 0.2,-25.1 0.2,25.1 0.1,41.9 0.2,-25.2 0.2,-25.1 0.2,0 0.2,33.5 0.2,25.2 0.1,-25.2 0.2,-33.5 0.2,-8.4 0.2,25.2 0.2,33.5 0.2,-16.8 0.1,0 0.2,-33.5 0.2,16.8 0.2,16.7 0.2,-16.7 0.2,0 0.1,-16.8 0.2,25.1 0.2,16.8 0.2,0 0.2,-25.1 0.2,-25.2 0.1,8.4 0.2,25.1 0.2,25.2 0.2,-33.5 0.2,-16.8 0.2,8.4 0.1,25.1 0.2,16.8 0.2,-16.8 0.2,-16.7 0.2,0 0.2,16.7 0.1,16.8 0.2,0 0.2,-33.5 0.2,-41.9 0.2,25.1 0.2,41.9 0.1,8.4 0.2,-16.8 0.2,-50.2 0.2,8.3 0.2,67.1 0.2,25.1 0.2,-50.3 0.1,-58.6 0.2,0 0.2,58.6 0.2,58.7 0.2,-16.8 0.2,-75.4 0.1,-25.1 0.2,8.4 0.2,58.6 0.2,16.8 0.2,-50.3 0.2,-33.5 0.1,16.7 0.2,67.1 0.2,0 0.2,-67.1 0.2,-33.5 0.2,0 0.1,83.8 0.2,25.1 0.2,-41.9 0.2,-50.2 0.2,25.1 0.2,33.5 0.1,25.2 0.2,-33.6 0.2,-58.6 0.2,25.1 0.2,25.2 0.2,41.9 0.1,-33.6 0.2,-41.8 0.2,-8.4 0.2,41.9 0.2,16.7 0.2,-8.4 0.1,-16.7 0.2,8.4 0.2,8.3 0.2,0 0.2,-25.1 0.2,0 0.1,0 0.2,25.1 0.2,33.6 0.2,-25.2 0.2,-25.1 0.2,8.4 0.2,0 0.1,-16.8 0.2,33.5 0.2,-16.7 0.2,-8.4 0.2,0 0.2,41.9 0.1,0 0.2,-41.9 0.2,-25.1 0.2,-8.4 0.2,41.9 0.2,33.5 0.1,0 0.2,-25.2 0.2,-8.3 0.2,-8.4 0.2,25.1 0.2,0 0.1,-16.7 0.2,-33.5 0.2,16.7 0.2,58.7 0.2,16.7 0.2,-50.3 0.1,-33.5 0.2,8.4 0.2,33.5 0.2,8.4 0.2,-8.4 0.2,-16.7 0.1,-8.4 0.2,33.5 0.2,0 0.2,-8.4 0.2,-25.1 0.2,-16.8 0.1,33.5 0.2,8.4 0.2,0 0.2,0 0.2,-25.1 0.2,-25.1 0.1,41.8 0.2,0 0.2,-8.3 0.2,8.3 0.2,25.2 0.2,8.4 0.2,-25.2 0.1,-16.7 0.2,-8.4 0.2,8.4 0.2,16.7 0.2,0 0.2,16.8 0.1,-16.8 0.2,-16.7 0.2,8.3 0.2,0 0.2,0 0.2,8.4 0.1,8.4 0.2,8.4 0.2,0 0.2,-8.4 0.2,-41.9 0.2,8.4 0.1,16.7 0.2,41.9 0.2,-25.1 0.2,8.4 0.2,-25.2 0.2,-8.3 0.1,16.7 0.2,8.4 0.2,-25.1 0.2,-25.2 0.2,33.5 0.2,25.2 0.1,-16.8 0.2,-25.1 0.2,8.4 0.2,16.7 0.2,8.4 0.2,8.4 0.1,-25.2 0.2,0 0.2,0 0.2,25.2 0.2,-25.2 0.2,-16.7 0.1,-8.4 0.2,8.4 0.2,50.3 0.2,-8.4 0.2,-33.5 0.2,8.3 0.2,0 0.1,16.8 0.2,-8.4 0.2,-16.7 0.2,-8.4 0.2,25.1 0.2,8.4 0.1,-16.8 0.2,-33.5 0.2,-8.3 0.2,41.8 0.2,16.8 0.2,-8.4 0.1,-33.5 0.2,-8.4 0.2,25.2 0.2,33.5 0.2,-16.8 0.2,-25.1 0.1,0 0.2,16.7" />
      <g
         id="g9505"
         style="color:#000000;fill:none;stroke:currentColor;stroke-width:1;stroke-linecap:butt;stroke-linejoin:miter">
        <path
           style="stroke:#000000"
           inkscape:connector-curvature="0"
           id="path9507"
           d="m 70.5,16.7 0,427.3 504.5,0 0,-427.3 -504.5,0 z" />
      </g>
    </g>
    <g
       id="g4817"
       transform="matrix(0.57073943,0,0,0.57073943,-30.10552,638.03141)">
      <g
         id="content"
         transform="matrix(0.3543307,0,0,-0.3543307,-62.007872,318.89763)"
         xml:space="preserve"
         stroke-miterlimit="10.433"
         font-style="normal"
         font-variant="normal"
         font-weight="normal"
         font-stretch="normal"
         font-size-adjust="none"
         letter-spacing="normal"
         word-spacing="normal"
         style="font-style:normal;font-variant:normal;font-weight:normal;font-stretch:normal;letter-spacing:normal;word-spacing:normal;text-anchor:start;fill:none;fill-opacity:1;fill-rule:evenodd;stroke:#000000;stroke-linecap:butt;stroke-linejoin:miter;stroke-miterlimit:10.43299961;stroke-dasharray:none;stroke-dashoffset:0;stroke-opacity:1"><path
           d="m 474.63,436.19 0.04,0.16 0.04,0.16 0.04,0.15 0.04,0.14 0.04,0.14 0.05,0.12 0.04,0.13 0.05,0.11 0.06,0.11 0.06,0.1 0.06,0.1 0.07,0.09 0.08,0.08 0.09,0.08 0.09,0.08 0.11,0.06 0.11,0.07 0.13,0.05 0.14,0.06 0.15,0.05 0.16,0.04 0.09,0.02 0.09,0.02 0.09,0.01 0.1,0.02 0.1,0.02 0.11,0.01 0.11,0.01 0.11,0.02 0.12,0.01 0.12,0.01 0.13,0.01 0.13,0.01 0.14,0.01 0.14,0 0.14,0.01 0.15,0 0.16,0.01 0.16,0 0.16,0 0.18,0.01 0.17,0 0.18,0 c 1.2,0 1.6,0 1.6,0.95 0,0.59 -0.55,0.59 -0.75,0.59 l -13.2,0 c -0.35,0 -1,0 -1,-0.99 0,-0.55 0.45,-0.55 1.4,-0.55 2.09,0 3.43,0 3.43,-0.95 0,-0.25 0,-0.35 -0.09,-0.8 l -6.73,-26.84 c -0.45,-1.85 -0.6,-2.35 -4.53,-2.35 -1.15,0 -1.59,0 -1.59,-0.99 0,-0.55 0.59,-0.55 0.74,-0.55 l 13.2,0 c 0.4,0 1,0 1,0.95 0,0.59 -0.4,0.59 -1.5,0.59 -0.89,0 -1.14,0 -2.14,0.1 -1.04,0.1 -1.24,0.3 -1.24,0.85 0,0.4 0.1,0.8 0.2,1.15 z"
           id="path4820"
           inkscape:connector-curvature="0"
           style="fill:#000000;stroke-width:0" /></g>    </g>
    <g
       id="g5210"
       transform="matrix(0.51437846,0,0,0.51437846,-30.434216,658.69109)">
      <g
         id="g5212"
         transform="matrix(0.3543307,0,0,-0.3543307,-62.007872,318.89763)"
         xml:space="preserve"
         stroke-miterlimit="10.433"
         font-style="normal"
         font-variant="normal"
         font-weight="normal"
         font-stretch="normal"
         font-size-adjust="none"
         letter-spacing="normal"
         word-spacing="normal"
         style="font-style:normal;font-variant:normal;font-weight:normal;font-stretch:normal;letter-spacing:normal;word-spacing:normal;text-anchor:start;fill:none;fill-opacity:1;fill-rule:evenodd;stroke:#000000;stroke-linecap:butt;stroke-linejoin:miter;stroke-miterlimit:10.43299961;stroke-dasharray:none;stroke-dashoffset:0;stroke-opacity:1"><path
           d="m 472.49,394.04 0,0.03 0,0.03 -0.01,0.01 0,0.02 0,0.01 -0.01,0.02 0,0.02 -0.01,0.01 -0.01,0.02 -0.01,0.02 -0.01,0.03 -0.01,0.02 -0.02,0.02 -0.02,0.03 -0.02,0.03 -0.02,0.03 -0.03,0.03 -0.03,0.04 -0.01,0.02 -0.02,0.02 -0.02,0.02 -0.02,0.02 -0.02,0.02 -0.02,0.03 -0.02,0.02 -0.02,0.02 -0.02,0.03 -0.03,0.02 -0.02,0.03 -0.03,0.03 -0.02,0.03 -0.03,0.03 -0.03,0.03 -0.03,0.03 -0.03,0.03 -0.03,0.03 -0.04,0.04 -0.03,0.03 -0.04,0.04 -0.03,0.03 -0.04,0.04 -0.04,0.04 c -6.23,6.28 -7.82,15.69 -7.82,23.31 0,8.67 1.89,17.34 8.02,23.57 0.65,0.59 0.65,0.69 0.65,0.84 0,0.35 -0.2,0.5 -0.5,0.5 -0.5,0 -4.98,-3.39 -7.92,-9.72 -2.54,-5.47 -3.14,-11 -3.14,-15.19 0,-3.88 0.55,-9.91 3.29,-15.54 2.99,-6.12 7.27,-9.36 7.77,-9.36 0.3,0 0.5,0.15 0.5,0.49 z"
           id="path5214"
           inkscape:connector-curvature="0"
           style="fill:#000000;stroke-width:0" /><path
           d="m 480.48,423.14 0,-13.35 c 0,-2.25 -0.55,-2.25 -3.89,-2.25 l 0,-1.54 11.21,0 0,1.54 c -3.34,0 -3.88,0 -3.88,2.25 l 0,9.16 c 0,5.18 3.53,7.97 6.72,7.97 3.14,0 3.69,-2.69 3.69,-5.53 l 0,-11.6 c 0,-2.25 -0.55,-2.25 -3.89,-2.25 l 0,-1.54 11.21,0 0,1.54 c -2.59,0 -3.84,0 -3.88,1.5 l 0,9.51 c 0,4.29 0,5.83 -1.55,7.63 -0.7,0.84 -2.34,1.84 -5.23,1.84 -3.63,0 -5.98,-2.14 -7.37,-5.23 l 0,5.23 -7.03,-0.55 0,-1.54 c 3.49,0 3.89,-0.35 3.89,-2.79 z"
           id="path5216"
           inkscape:connector-curvature="0"
           style="fill:#000000;stroke-width:0" /><path
           d="m 522.82,440.67 -0.02,0.06 -0.02,0.06 -0.02,0.05 -0.02,0.06 -0.02,0.05 -0.02,0.05 -0.03,0.05 -0.02,0.05 -0.02,0.04 -0.02,0.05 -0.02,0.04 -0.03,0.04 -0.02,0.04 -0.03,0.03 -0.02,0.04 -0.03,0.03 -0.03,0.03 -0.03,0.03 -0.04,0.03 -0.03,0.02 -0.04,0.03 -0.04,0.02 -0.04,0.02 -0.05,0.01 -0.05,0.02 -0.05,0.01 -0.05,0.01 -0.06,0.01 -0.06,0.01 -0.07,0 -0.07,0.01 -0.03,0 -0.04,0 c -0.8,0 -0.95,-0.3 -1.2,-1 l -10.31,-29.79 c -0.89,-2.54 -2.88,-3.29 -5.58,-3.34 l 0,-1.54 10.81,0 0,1.54 c -2.49,0 -3.73,1.25 -3.73,2.55 0,0.14 0.05,0.64 0.1,0.74 l 2.29,6.53 0.54,1.54 5.58,16.19 5.63,-16.19 -11.21,0 -0.54,-1.54 12.3,0 2.64,-7.63 c 0.05,-0.19 0.15,-0.49 0.15,-0.69 0,-1.5 -2.79,-1.5 -4.13,-1.5 l 0,-1.54 13.7,0 0,1.54 -0.9,0 c -2.99,0 -3.69,0.35 -4.23,2 z"
           id="path5218"
           inkscape:connector-curvature="0"
           style="fill:#000000;stroke-width:0" /><path
           d="m 554.4,418.45 -0.01,0.37 0,0.39 -0.01,0.39 -0.01,0.41 -0.04,0.84 -0.06,0.88 -0.09,0.92 -0.1,0.94 -0.14,0.98 -0.16,1 -0.2,1.02 -0.23,1.04 -0.27,1.05 -0.3,1.06 -0.35,1.06 -0.39,1.07 -0.22,0.53 -0.22,0.54 -0.24,0.53 -0.25,0.53 c -2.99,6.12 -7.27,9.36 -7.77,9.36 -0.3,0 -0.5,-0.2 -0.5,-0.5 0,-0.15 0,-0.25 0.94,-1.15 4.89,-4.92 7.73,-12.85 7.73,-23.26 0,-8.52 -1.85,-17.28 -8.02,-23.56 -0.65,-0.6 -0.65,-0.69 -0.65,-0.85 0,-0.29 0.2,-0.49 0.5,-0.49 0.5,0 4.98,3.38 7.92,9.71 2.54,5.48 3.14,11.01 3.14,15.19 z"
           id="path5220"
           inkscape:connector-curvature="0"
           style="fill:#000000;stroke-width:0" /></g>    </g>
    <g
       id="g5428"
       transform="matrix(0.52639667,0,0,0.52639667,172.03495,786.00042)">
      <g
         word-spacing="normal"
         letter-spacing="normal"
         font-size-adjust="none"
         font-stretch="normal"
         font-weight="normal"
         font-variant="normal"
         font-style="normal"
         stroke-miterlimit="10.433"
         xml:space="preserve"
         transform="matrix(0.3543307,0,0,-0.3543307,-62.007872,318.89763)"
         id="g5430"
         style="font-style:normal;font-variant:normal;font-weight:normal;font-stretch:normal;letter-spacing:normal;word-spacing:normal;text-anchor:start;fill:none;fill-opacity:1;fill-rule:evenodd;stroke:#000000;stroke-linecap:butt;stroke-linejoin:miter;stroke-miterlimit:10.43299961;stroke-dasharray:none;stroke-dashoffset:0;stroke-opacity:1"><path
           id="path5432"
           d="m 466.26,425.93 4.69,0 c 0.99,0 1.49,0 1.49,0.99 0,0.55 -0.5,0.55 -1.4,0.55 l -4.38,0 c 1.79,7.07 2.04,8.07 2.04,8.37 0,0.84 -0.59,1.34 -1.44,1.34 -0.15,0 -1.55,-0.05 -1.99,-1.79 l -1.95,-7.92 -4.68,0 c -1,0 -1.5,0 -1.5,-0.95 0,-0.59 0.4,-0.59 1.4,-0.59 l 4.39,0 c -3.59,-14.15 -3.79,-15 -3.79,-15.89 0,-2.7 1.89,-4.59 4.58,-4.59 5.08,0 7.92,7.28 7.92,7.67 0,0.5 -0.4,0.5 -0.6,0.5 -0.45,0 -0.49,-0.15 -0.74,-0.69 -2.14,-5.19 -4.78,-6.38 -6.48,-6.38 -1.05,0 -1.54,0.65 -1.54,2.29 0,1.2 0.1,1.54 0.29,2.39 z"
           inkscape:connector-curvature="0"
           style="fill:#000000;stroke-width:0" /><path
           id="path5434"
           d="m 506.49,394.04 0,0.03 0,0.03 -0.01,0.01 0,0.02 0,0.01 -0.01,0.02 0,0.02 -0.01,0.01 -0.01,0.02 -0.01,0.02 -0.01,0.03 -0.01,0.02 -0.02,0.02 -0.02,0.03 -0.02,0.03 -0.02,0.03 -0.03,0.03 -0.03,0.04 -0.01,0.02 -0.02,0.02 -0.02,0.02 -0.02,0.02 -0.02,0.02 -0.02,0.03 -0.02,0.02 -0.02,0.02 -0.02,0.03 -0.03,0.02 -0.02,0.03 -0.03,0.03 -0.02,0.03 -0.03,0.03 -0.03,0.03 -0.03,0.03 -0.03,0.03 -0.03,0.03 -0.04,0.04 -0.03,0.03 -0.04,0.04 -0.03,0.03 -0.04,0.04 -0.04,0.04 c -6.23,6.28 -7.82,15.69 -7.82,23.31 0,8.67 1.89,17.34 8.02,23.57 0.65,0.59 0.65,0.69 0.65,0.84 0,0.35 -0.2,0.5 -0.5,0.5 -0.5,0 -4.98,-3.39 -7.92,-9.72 -2.54,-5.47 -3.14,-11 -3.14,-15.19 0,-3.88 0.55,-9.91 3.29,-15.54 2.99,-6.12 7.27,-9.36 7.77,-9.36 0.3,0 0.5,0.15 0.5,0.49 z"
           inkscape:connector-curvature="0"
           style="fill:#000000;stroke-width:0" /><path
           id="path5436"
           d="m 521.51,423.48 0.02,0.1 0.03,0.11 0.02,0.11 0.03,0.11 0.03,0.12 0.03,0.12 0.06,0.24 0.06,0.25 0.06,0.25 0.07,0.24 0.05,0.25 0.03,0.11 0.03,0.12 0.03,0.11 0.02,0.11 0.03,0.1 0.02,0.1 0.02,0.1 0.02,0.09 0.02,0.08 0.02,0.07 0.01,0.07 0.01,0.07 0.01,0.05 0.01,0.05 0,0.03 0,0.02 0,0.01 c 0,0.85 -0.59,1.35 -1.44,1.35 -0.15,0 -1.54,-0.05 -1.99,-1.8 l -7.18,-28.84 c -0.14,-0.59 -0.14,-0.7 -0.14,-0.79 0,-0.75 0.54,-1.35 1.39,-1.35 1.04,0 1.64,0.9 1.74,1.05 0.2,0.44 0.85,3.03 2.74,10.71 1.6,-1.35 3.84,-1.55 4.83,-1.55 3.49,0 5.43,2.25 6.63,3.64 0.45,-2.24 2.29,-3.64 4.48,-3.64 1.74,0 2.89,1.15 3.69,2.74 0.84,1.79 1.49,4.83 1.49,4.93 0,0.5 -0.45,0.5 -0.59,0.5 -0.5,0 -0.55,-0.2 -0.7,-0.89 -0.85,-3.24 -1.75,-6.18 -3.79,-6.18 -1.34,0 -1.49,1.29 -1.49,2.29 0,1.09 0.6,3.44 0.99,5.18 l 1.4,5.38 c 0.15,0.75 0.65,2.64 0.85,3.39 0.25,1.14 0.74,3.03 0.74,3.33 0,0.9 -0.69,1.35 -1.44,1.35 -0.25,0 -1.55,-0.05 -1.94,-1.74 l -2.34,-9.32 c -0.6,-2.49 -1.15,-4.58 -1.3,-5.08 -0.05,-0.25 -2.44,-4.78 -6.48,-4.78 -2.49,0 -3.68,1.64 -3.68,4.33 0,1.45 0.35,2.84 0.69,4.24 z"
           inkscape:connector-curvature="0"
           style="fill:#000000;stroke-width:0" /><path
           id="path5438"
           d="m 550.36,415.66 0.11,-0.02 0.13,-0.02 0.14,-0.03 0.16,-0.03 0.17,-0.04 0.18,-0.05 0.18,-0.05 0.2,-0.05 0.21,-0.06 0.21,-0.07 0.21,-0.08 0.22,-0.09 0.22,-0.09 0.22,-0.1 0.22,-0.12 0.22,-0.12 0.22,-0.13 0.21,-0.14 0.2,-0.15 0.2,-0.16 0.19,-0.18 0.18,-0.19 0.17,-0.2 0.16,-0.21 0.14,-0.22 0.07,-0.12 0.06,-0.12 0.06,-0.13 0.05,-0.12 0.05,-0.13 0.05,-0.14 0.04,-0.14 0.03,-0.14 0.03,-0.15 0.03,-0.15 0.02,-0.15 0.01,-0.16 0.01,-0.16 0,-0.17 c 0,-2.54 -1.74,-4.53 -5.63,-4.53 -4.18,0 -5.98,2.84 -6.92,7.07 -0.15,0.65 -0.2,0.85 -0.7,0.85 -0.64,0 -0.64,-0.35 -0.64,-1.25 l 0,-6.57 c 0,-0.85 0,-1.2 0.54,-1.2 0.25,0 0.3,0.05 1.25,1 0.09,0.1 0.09,0.2 0.99,1.14 2.19,-2.09 4.44,-2.14 5.48,-2.14 5.73,0 8.02,3.34 8.02,6.93 0,2.64 -1.49,4.13 -2.09,4.73 -1.64,1.59 -3.59,1.99 -5.68,2.39 -2.79,0.55 -6.13,1.2 -6.13,4.09 0,1.74 1.3,3.78 5.58,3.78 5.48,0 5.73,-4.48 5.83,-6.03 0.05,-0.45 0.5,-0.45 0.6,-0.45 0.65,0 0.65,0.25 0.65,1.2 l 0,5.03 c 0,0.85 0,1.2 -0.55,1.2 -0.25,0 -0.35,0 -0.99,-0.6 -0.16,-0.2 -0.65,-0.65 -0.85,-0.8 -1.9,1.4 -3.94,1.4 -4.69,1.4 -6.08,0 -7.96,-3.34 -7.96,-6.13 0,-1.74 0.79,-3.14 2.13,-4.23 1.6,-1.3 2.99,-1.6 6.58,-2.3 z"
           inkscape:connector-curvature="0"
           style="fill:#000000;stroke-width:0" /><path
           id="path5440"
           d="m 573.4,418.45 -0.01,0.37 0,0.39 -0.01,0.39 -0.01,0.41 -0.04,0.84 -0.06,0.88 -0.09,0.92 -0.1,0.94 -0.14,0.98 -0.16,1 -0.2,1.02 -0.23,1.04 -0.27,1.05 -0.3,1.06 -0.35,1.06 -0.39,1.07 -0.22,0.53 -0.22,0.54 -0.24,0.53 -0.25,0.53 c -2.99,6.12 -7.27,9.36 -7.77,9.36 -0.3,0 -0.5,-0.2 -0.5,-0.5 0,-0.15 0,-0.25 0.94,-1.15 4.89,-4.92 7.73,-12.85 7.73,-23.26 0,-8.52 -1.85,-17.28 -8.02,-23.56 -0.65,-0.6 -0.65,-0.69 -0.65,-0.85 0,-0.29 0.2,-0.49 0.5,-0.49 0.5,0 4.98,3.38 7.92,9.71 2.54,5.48 3.14,11.01 3.14,15.19 z"
           inkscape:connector-curvature="0"
           style="fill:#000000;stroke-width:0" /></g>    </g>
    <g
       id="g5858"
       transform="matrix(0.75,0,0,0.75,0.90683757,675.93548)">
      <g
         word-spacing="normal"
         letter-spacing="normal"
         font-size-adjust="none"
         font-stretch="normal"
         font-weight="normal"
         font-variant="normal"
         font-style="normal"
         stroke-miterlimit="10.433"
         xml:space="preserve"
         transform="matrix(0.21472149,0,0,-0.21472149,-37.57626,169.35761)"
         id="g5860"
         style="font-style:normal;font-variant:normal;font-weight:normal;font-stretch:normal;letter-spacing:normal;word-spacing:normal;text-anchor:start;fill:none;fill-opacity:1;fill-rule:evenodd;stroke:#000000;stroke-linecap:butt;stroke-linejoin:miter;stroke-miterlimit:10.43299961;stroke-dasharray:none;stroke-dashoffset:0;stroke-opacity:1"><path
           id="path5862"
           d="m 470.64,437.88 0,0.05 0,0.06 0,0.05 0,0.05 0,0.05 0,0.05 0,0.04 0,0.05 0,0.04 0,0.04 0,0.04 0,0.04 0,0.04 -0.01,0.04 0,0.03 0,0.04 -0.01,0.03 0,0.03 -0.01,0.06 -0.01,0.05 -0.02,0.05 -0.01,0.05 -0.02,0.04 -0.02,0.04 -0.03,0.04 -0.03,0.03 -0.03,0.02 -0.03,0.03 -0.04,0.02 -0.05,0.02 -0.02,0.01 -0.03,0.01 -0.02,0 -0.03,0.01 -0.03,0.01 -0.03,0 -0.03,0.01 -0.03,0 -0.03,0.01 -0.04,0 -0.04,0 -0.03,0 -0.04,0.01 -0.04,0 -0.04,0 -0.05,0 -0.04,0 -0.05,0 -0.05,0.01 -0.05,0 -0.05,0 -0.05,0 c -3.09,-3.19 -7.47,-3.19 -9.07,-3.19 l 0,-1.55 c 1,0 3.94,0 6.53,1.3 l 0,-25.81 c 0,-1.79 -0.15,-2.39 -4.63,-2.39 l -1.6,0 0,-1.54 16.14,0 0,1.54 -1.59,0 c -4.49,0 -4.64,0.55 -4.64,2.39 z"
           inkscape:connector-curvature="0"
           style="fill:#000000;stroke-width:0" /></g>    </g>
    <g
       id="g6268"
       transform="matrix(0.75,0,0,0.75,0.45672749,697.63689)">
      <g
         word-spacing="normal"
         letter-spacing="normal"
         font-size-adjust="none"
         font-stretch="normal"
         font-weight="normal"
         font-variant="normal"
         font-style="normal"
         stroke-miterlimit="10.433"
         xml:space="preserve"
         transform="matrix(0.21472149,0,0,-0.21472149,-37.57626,169.35761)"
         id="g6270"
         style="font-style:normal;font-variant:normal;font-weight:normal;font-stretch:normal;letter-spacing:normal;word-spacing:normal;text-anchor:start;fill:none;fill-opacity:1;fill-rule:evenodd;stroke:#000000;stroke-linecap:butt;stroke-linejoin:miter;stroke-miterlimit:10.43299961;stroke-dasharray:none;stroke-dashoffset:0;stroke-opacity:1"><path
           id="path6272"
           d="m 478.91,421.94 0,0.75 -0.01,0.74 -0.02,0.75 -0.03,0.74 -0.05,0.75 -0.06,0.74 -0.07,0.74 -0.1,0.73 -0.11,0.73 -0.14,0.73 -0.16,0.72 -0.19,0.72 -0.22,0.71 -0.24,0.71 -0.28,0.7 -0.15,0.35 -0.16,0.35 c -2.29,4.78 -6.37,5.58 -8.47,5.58 -2.99,0 -6.62,-1.3 -8.66,-5.93 -1.6,-3.44 -1.85,-7.32 -1.85,-11.31 0,-3.74 0.2,-8.22 2.24,-12.01 2.15,-4.03 5.78,-5.03 8.22,-5.03 l 0,1.1 c -1.94,0 -4.88,1.25 -5.78,6.03 -0.54,2.99 -0.54,7.57 -0.54,10.51 0,3.19 0,6.47 0.4,9.16 0.94,5.93 4.68,6.38 5.92,6.38 1.65,0 4.94,-0.9 5.88,-5.83 0.5,-2.79 0.5,-6.57 0.5,-9.71 0,-3.74 0,-7.13 -0.55,-10.31 -0.75,-4.73 -3.59,-6.23 -5.83,-6.23 l 0,0 0,-1.1 c 2.69,0 6.48,1.05 8.67,5.78 1.59,3.44 1.84,7.32 1.84,11.26 z"
           inkscape:connector-curvature="0"
           style="fill:#000000;stroke-width:0" /></g>    </g>
    <g
       id="g6482"
       transform="matrix(0.75,0,0,0.75,-2.6900153,723.48654)">
      <g
         id="g6484"
         transform="matrix(0.21472149,0,0,-0.21472149,-37.57626,169.35761)"
         xml:space="preserve"
         stroke-miterlimit="10.433"
         font-style="normal"
         font-variant="normal"
         font-weight="normal"
         font-stretch="normal"
         font-size-adjust="none"
         letter-spacing="normal"
         word-spacing="normal"
         style="font-style:normal;font-variant:normal;font-weight:normal;font-stretch:normal;letter-spacing:normal;word-spacing:normal;text-anchor:start;fill:none;fill-opacity:1;fill-rule:evenodd;stroke:#000000;stroke-linecap:butt;stroke-linejoin:miter;stroke-miterlimit:10.43299961;stroke-dasharray:none;stroke-dashoffset:0;stroke-opacity:1"><polygon
           points="469.75,418.2 456.55,418.2 456.55,415.32 469.75,415.32 "
           id="polygon6486"
           style="fill:#000000;stroke-width:0" /><path
           d="m 486.64,414.22 0,-4.33 c 0,-1.8 -0.09,-2.35 -3.78,-2.35 l -1.05,0 0,-1.54 13.5,0 0,1.54 -1.04,0 c -3.69,0 -3.79,0.55 -3.79,2.35 l 0,4.33 4.98,0 0,1.54 -4.98,0 0,22.67 c 0,1 0,1.29 -0.8,1.29 -0.45,0 -0.59,0 -0.99,-0.6 l -15.3,-23.36 1.4,0 12.16,18.58 0,-18.58 -12.16,0 -1.4,0 0,-1.54 z"
           id="path6488"
           inkscape:connector-curvature="0"
           style="fill:#000000;stroke-width:0" /></g>    </g>
    <g
       id="g6706"
       transform="matrix(0.75,0,0,0.75,-2.560378,748.57988)">
      <g
         word-spacing="normal"
         letter-spacing="normal"
         font-size-adjust="none"
         font-stretch="normal"
         font-weight="normal"
         font-variant="normal"
         font-style="normal"
         stroke-miterlimit="10.433"
         xml:space="preserve"
         transform="matrix(0.21472149,0,0,-0.21472149,-37.57626,169.35761)"
         id="g6708"
         style="font-style:normal;font-variant:normal;font-weight:normal;font-stretch:normal;letter-spacing:normal;word-spacing:normal;text-anchor:start;fill:none;fill-opacity:1;fill-rule:evenodd;stroke:#000000;stroke-linecap:butt;stroke-linejoin:miter;stroke-miterlimit:10.43299961;stroke-dasharray:none;stroke-dashoffset:0;stroke-opacity:1"><polygon
           id="polygon6710"
           points="469.75,418.2 456.55,418.2 456.55,415.32 469.75,415.32 "
           style="fill:#000000;stroke-width:0" /><path
           id="path6712"
           d="m 487.39,424.03 0.33,0.18 0.33,0.18 0.32,0.18 0.31,0.19 0.3,0.19 0.3,0.2 0.29,0.2 0.28,0.2 0.27,0.21 0.26,0.22 0.25,0.22 0.25,0.22 0.23,0.22 0.22,0.24 0.22,0.23 0.2,0.24 0.19,0.24 0.19,0.25 0.17,0.25 0.16,0.26 0.15,0.26 0.13,0.27 0.13,0.27 0.11,0.27 0.1,0.28 0.09,0.28 0.07,0.28 0.07,0.29 0.04,0.3 0.04,0.3 0.02,0.3 0.01,0.3 c 0,4.59 -4.44,7.43 -8.97,7.43 l -0.05,-1.25 c 3.64,0 6.83,-2.59 6.83,-6.18 0,-2.84 -1.94,-5.23 -4.93,-6.97 l -6.18,3.99 c -2.29,1.49 -2.49,3.18 -2.49,4.03 0,3.04 3.24,5.13 6.77,5.13 l 0.05,1.25 c -4.98,0 -9.01,-3.69 -9.01,-8.32 0,-0.9 0.1,-3.14 2.19,-5.48 0.55,-0.6 2.39,-1.84 3.64,-2.69 l 1.14,-0.75 6.13,-3.89 c 1.39,-0.94 3.73,-2.44 3.73,-5.48 0,-3.68 -3.73,-6.27 -7.82,-6.27 -4.28,0 -7.87,3.09 -7.87,7.22 0,2.89 1.6,6.08 5.83,8.42 l 0,0 -1.14,0.75 c -2.89,-1.45 -7.18,-4.24 -7.18,-9.17 0,-5.28 5.08,-8.62 10.31,-8.62 5.63,0 10.37,4.14 10.37,9.47 0,1.79 -0.56,4.03 -2.45,6.13 -0.94,1.04 -1.74,1.54 -4.93,3.53 z"
           inkscape:connector-curvature="0"
           style="fill:#000000;stroke-width:0" /></g>    </g>
    <g
       id="g6938"
       transform="matrix(0.75,0,0,0.75,-7.1822584,772.47386)">
      <g
         id="g6940"
         transform="matrix(0.21472149,0,0,-0.21472149,-37.57626,169.35761)"
         xml:space="preserve"
         stroke-miterlimit="10.433"
         font-style="normal"
         font-variant="normal"
         font-weight="normal"
         font-stretch="normal"
         font-size-adjust="none"
         letter-spacing="normal"
         word-spacing="normal"
         style="font-style:normal;font-variant:normal;font-weight:normal;font-stretch:normal;letter-spacing:normal;word-spacing:normal;text-anchor:start;fill:none;fill-opacity:1;fill-rule:evenodd;stroke:#000000;stroke-linecap:butt;stroke-linejoin:miter;stroke-miterlimit:10.43299961;stroke-dasharray:none;stroke-dashoffset:0;stroke-opacity:1"><polygon
           points="469.75,418.2 456.55,418.2 456.55,415.32 469.75,415.32 "
           id="polygon6942"
           style="fill:#000000;stroke-width:0" /><path
           d="m 486.64,437.88 0,0.05 0,0.06 0,0.05 0,0.05 0,0.05 0,0.05 0,0.04 0,0.05 0,0.04 0,0.04 0,0.04 0,0.04 0,0.04 -0.01,0.04 0,0.03 0,0.04 -0.01,0.03 0,0.03 -0.01,0.06 -0.01,0.05 -0.02,0.05 -0.01,0.05 -0.02,0.04 -0.02,0.04 -0.03,0.04 -0.03,0.03 -0.03,0.02 -0.03,0.03 -0.04,0.02 -0.05,0.02 -0.02,0.01 -0.03,0.01 -0.02,0 -0.03,0.01 -0.03,0.01 -0.03,0 -0.03,0.01 -0.03,0 -0.03,0.01 -0.04,0 -0.04,0 -0.03,0 -0.04,0.01 -0.04,0 -0.04,0 -0.05,0 -0.04,0 -0.05,0 -0.05,0.01 -0.05,0 -0.05,0 -0.05,0 c -3.09,-3.19 -7.47,-3.19 -9.07,-3.19 l 0,-1.55 c 1,0 3.94,0 6.53,1.3 l 0,-25.81 c 0,-1.79 -0.15,-2.39 -4.63,-2.39 l -1.6,0 0,-1.54 16.14,0 0,1.54 -1.59,0 c -4.49,0 -4.64,0.55 -4.64,2.39 z"
           id="path6944"
           inkscape:connector-curvature="0"
           style="fill:#000000;stroke-width:0" /><path
           d="m 503.33,409.84 5.28,5.12 c 7.77,6.88 10.76,9.57 10.76,14.55 0,5.68 -4.49,9.67 -10.57,9.67 -5.62,0 -9.31,-4.59 -9.31,-9.02 0,-2.79 2.49,-2.79 2.64,-2.79 0.85,0 2.59,0.6 2.59,2.64 0,1.29 -0.9,2.59 -2.64,2.59 -0.4,0 -0.5,0 -0.65,-0.05 1.15,3.24 3.84,5.08 6.73,5.08 4.53,0 6.67,-4.03 6.67,-8.12 0,-3.98 -2.49,-7.92 -5.23,-11.01 l -9.56,-10.66 c -0.55,-0.54 -0.55,-0.64 -0.55,-1.84 l 18.48,0 1.4,8.67 -1.25,0 c -0.25,-1.5 -0.6,-3.69 -1.1,-4.44 -0.34,-0.39 -3.63,-0.39 -4.73,-0.39 z"
           id="path6946"
           inkscape:connector-curvature="0"
           style="fill:#000000;stroke-width:0" /></g>    </g>
    <g
       id="g7182"
       transform="matrix(0.75,0,0,0.75,-7.2574104,796.42689)">
      <g
         word-spacing="normal"
         letter-spacing="normal"
         font-size-adjust="none"
         font-stretch="normal"
         font-weight="normal"
         font-variant="normal"
         font-style="normal"
         stroke-miterlimit="10.433"
         xml:space="preserve"
         transform="matrix(0.21472149,0,0,-0.21472149,-37.57626,169.35761)"
         id="g7184"
         style="font-style:normal;font-variant:normal;font-weight:normal;font-stretch:normal;letter-spacing:normal;word-spacing:normal;text-anchor:start;fill:none;fill-opacity:1;fill-rule:evenodd;stroke:#000000;stroke-linecap:butt;stroke-linejoin:miter;stroke-miterlimit:10.43299961;stroke-dasharray:none;stroke-dashoffset:0;stroke-opacity:1"><polygon
           id="polygon7186"
           points="469.75,418.2 456.55,418.2 456.55,415.32 469.75,415.32 "
           style="fill:#000000;stroke-width:0" /><path
           id="path7188"
           d="m 486.64,437.88 0,0.05 0,0.06 0,0.05 0,0.05 0,0.05 0,0.05 0,0.04 0,0.05 0,0.04 0,0.04 0,0.04 0,0.04 0,0.04 -0.01,0.04 0,0.03 0,0.04 -0.01,0.03 0,0.03 -0.01,0.06 -0.01,0.05 -0.02,0.05 -0.01,0.05 -0.02,0.04 -0.02,0.04 -0.03,0.04 -0.03,0.03 -0.03,0.02 -0.03,0.03 -0.04,0.02 -0.05,0.02 -0.02,0.01 -0.03,0.01 -0.02,0 -0.03,0.01 -0.03,0.01 -0.03,0 -0.03,0.01 -0.03,0 -0.03,0.01 -0.04,0 -0.04,0 -0.03,0 -0.04,0.01 -0.04,0 -0.04,0 -0.05,0 -0.04,0 -0.05,0 -0.05,0.01 -0.05,0 -0.05,0 -0.05,0 c -3.09,-3.19 -7.47,-3.19 -9.07,-3.19 l 0,-1.55 c 1,0 3.94,0 6.53,1.3 l 0,-25.81 c 0,-1.79 -0.15,-2.39 -4.63,-2.39 l -1.6,0 0,-1.54 16.14,0 0,1.54 -1.59,0 c -4.49,0 -4.64,0.55 -4.64,2.39 z"
           inkscape:connector-curvature="0"
           style="fill:#000000;stroke-width:0" /><path
           id="path7190"
           d="m 503.57,422.34 0,1.2 c 0,12.6 6.18,14.39 8.72,14.39 1.2,0 3.29,-0.3 4.39,-1.99 -0.75,0 -2.74,0 -2.74,-2.24 0,-1.55 1.19,-2.29 2.29,-2.29 0.79,0 2.29,0.44 2.29,2.39 0,2.99 -2.19,5.38 -6.33,5.38 -6.37,0 -13.1,-6.43 -13.1,-17.44 0,-13.3 5.78,-16.84 10.41,-16.84 5.53,0 10.27,4.69 10.27,11.26 0,6.33 -4.44,11.11 -9.97,11.11 l -0.05,-1.15 c 0.8,0 3.09,0 4.64,-3.08 0.89,-1.85 0.89,-4.39 0.89,-6.83 0,-2.39 0,-4.88 -0.85,-6.67 -1.49,-2.99 -3.78,-3.24 -4.93,-3.24 l 0,0 c -3.14,0 -4.63,2.99 -4.93,3.74 -0.89,2.34 -0.89,6.32 -0.89,7.22 0,3.88 1.59,8.86 6.07,8.86 l 0.05,1.15 c -3.39,0 -5.23,-2.54 -6.23,-4.93 z"
           inkscape:connector-curvature="0"
           style="fill:#000000;stroke-width:0" /></g>    </g>
    <g
       id="g7409"
       transform="matrix(0.75,0,0,0.75,73.006935,802.58903)">
      <g
         id="g7411"
         transform="matrix(0.21472149,0,0,-0.21472149,-37.57626,169.35761)"
         xml:space="preserve"
         stroke-miterlimit="10.433"
         font-style="normal"
         font-variant="normal"
         font-weight="normal"
         font-stretch="normal"
         font-size-adjust="none"
         letter-spacing="normal"
         word-spacing="normal"
         style="font-style:normal;font-variant:normal;font-weight:normal;font-stretch:normal;letter-spacing:normal;word-spacing:normal;text-anchor:start;fill:none;fill-opacity:1;fill-rule:evenodd;stroke:#000000;stroke-linecap:butt;stroke-linejoin:miter;stroke-miterlimit:10.43299961;stroke-dasharray:none;stroke-dashoffset:0;stroke-opacity:1"><path
           d="m 478.91,421.94 0,0.75 -0.01,0.74 -0.02,0.75 -0.03,0.74 -0.05,0.75 -0.06,0.74 -0.07,0.74 -0.1,0.73 -0.11,0.73 -0.14,0.73 -0.16,0.72 -0.19,0.72 -0.22,0.71 -0.24,0.71 -0.28,0.7 -0.15,0.35 -0.16,0.35 c -2.29,4.78 -6.37,5.58 -8.47,5.58 -2.99,0 -6.62,-1.3 -8.66,-5.93 -1.6,-3.44 -1.85,-7.32 -1.85,-11.31 0,-3.74 0.2,-8.22 2.24,-12.01 2.15,-4.03 5.78,-5.03 8.22,-5.03 l 0,1.1 c -1.94,0 -4.88,1.25 -5.78,6.03 -0.54,2.99 -0.54,7.57 -0.54,10.51 0,3.19 0,6.47 0.4,9.16 0.94,5.93 4.68,6.38 5.92,6.38 1.65,0 4.94,-0.9 5.88,-5.83 0.5,-2.79 0.5,-6.57 0.5,-9.71 0,-3.74 0,-7.13 -0.55,-10.31 -0.75,-4.73 -3.59,-6.23 -5.83,-6.23 l 0,0 0,-1.1 c 2.69,0 6.48,1.05 8.67,5.78 1.59,3.44 1.84,7.32 1.84,11.26 z"
           id="path7413"
           inkscape:connector-curvature="0"
           style="fill:#000000;stroke-width:0" /><path
           d="m 489.56,408.64 0,0.14 -0.01,0.13 -0.02,0.13 -0.02,0.13 -0.03,0.13 -0.04,0.12 -0.04,0.12 -0.05,0.12 -0.05,0.12 -0.06,0.11 -0.06,0.11 -0.07,0.11 -0.08,0.1 -0.07,0.1 -0.09,0.1 -0.09,0.09 -0.09,0.09 -0.09,0.08 -0.1,0.08 -0.11,0.08 -0.1,0.07 -0.11,0.06 -0.12,0.06 -0.11,0.05 -0.12,0.05 -0.13,0.04 -0.12,0.04 -0.13,0.03 -0.13,0.02 -0.13,0.02 -0.13,0.01 -0.13,0 c -1.45,0 -2.64,-1.19 -2.64,-2.64 0,-1.44 1.19,-2.64 2.64,-2.64 1.44,0 2.63,1.2 2.63,2.64 z"
           id="path7415"
           inkscape:connector-curvature="0"
           style="fill:#000000;stroke-width:0" /><path
           d="m 508.64,437.88 0,0.05 0,0.06 0,0.05 0,0.05 0,0.05 0,0.05 0,0.04 0,0.05 0,0.04 0,0.04 0,0.04 0,0.04 0,0.04 -0.01,0.04 0,0.03 0,0.04 -0.01,0.03 0,0.03 -0.01,0.06 -0.01,0.05 -0.02,0.05 -0.01,0.05 -0.02,0.04 -0.02,0.04 -0.03,0.04 -0.03,0.03 -0.03,0.02 -0.03,0.03 -0.04,0.02 -0.05,0.02 -0.02,0.01 -0.03,0.01 -0.02,0 -0.03,0.01 -0.03,0.01 -0.03,0 -0.03,0.01 -0.03,0 -0.03,0.01 -0.04,0 -0.04,0 -0.03,0 -0.04,0.01 -0.04,0 -0.04,0 -0.05,0 -0.04,0 -0.05,0 -0.05,0.01 -0.05,0 -0.05,0 -0.05,0 c -3.09,-3.19 -7.47,-3.19 -9.07,-3.19 l 0,-1.55 c 1,0 3.94,0 6.53,1.3 l 0,-25.81 c 0,-1.79 -0.15,-2.39 -4.63,-2.39 l -1.6,0 0,-1.54 16.14,0 0,1.54 -1.59,0 c -4.49,0 -4.64,0.55 -4.64,2.39 z"
           id="path7417"
           inkscape:connector-curvature="0"
           style="fill:#000000;stroke-width:0" /></g>    </g>
    <g
       id="g7619"
       transform="matrix(0.75,0,0,0.75,108.22882,802.58903)">
      <g
         word-spacing="normal"
         letter-spacing="normal"
         font-size-adjust="none"
         font-stretch="normal"
         font-weight="normal"
         font-variant="normal"
         font-style="normal"
         stroke-miterlimit="10.433"
         xml:space="preserve"
         transform="matrix(0.21472149,0,0,-0.21472149,-37.57626,169.35761)"
         id="g7621"
         style="font-style:normal;font-variant:normal;font-weight:normal;font-stretch:normal;letter-spacing:normal;word-spacing:normal;text-anchor:start;fill:none;fill-opacity:1;fill-rule:evenodd;stroke:#000000;stroke-linecap:butt;stroke-linejoin:miter;stroke-miterlimit:10.43299961;stroke-dasharray:none;stroke-dashoffset:0;stroke-opacity:1"><path
           id="path7623"
           d="m 478.91,421.94 0,0.75 -0.01,0.74 -0.02,0.75 -0.03,0.74 -0.05,0.75 -0.06,0.74 -0.07,0.74 -0.1,0.73 -0.11,0.73 -0.14,0.73 -0.16,0.72 -0.19,0.72 -0.22,0.71 -0.24,0.71 -0.28,0.7 -0.15,0.35 -0.16,0.35 c -2.29,4.78 -6.37,5.58 -8.47,5.58 -2.99,0 -6.62,-1.3 -8.66,-5.93 -1.6,-3.44 -1.85,-7.32 -1.85,-11.31 0,-3.74 0.2,-8.22 2.24,-12.01 2.15,-4.03 5.78,-5.03 8.22,-5.03 l 0,1.1 c -1.94,0 -4.88,1.25 -5.78,6.03 -0.54,2.99 -0.54,7.57 -0.54,10.51 0,3.19 0,6.47 0.4,9.16 0.94,5.93 4.68,6.38 5.92,6.38 1.65,0 4.94,-0.9 5.88,-5.83 0.5,-2.79 0.5,-6.57 0.5,-9.71 0,-3.74 0,-7.13 -0.55,-10.31 -0.75,-4.73 -3.59,-6.23 -5.83,-6.23 l 0,0 0,-1.1 c 2.69,0 6.48,1.05 8.67,5.78 1.59,3.44 1.84,7.32 1.84,11.26 z"
           inkscape:connector-curvature="0"
           style="fill:#000000;stroke-width:0" /><path
           id="path7625"
           d="m 489.56,408.64 0,0.14 -0.01,0.13 -0.02,0.13 -0.02,0.13 -0.03,0.13 -0.04,0.12 -0.04,0.12 -0.05,0.12 -0.05,0.12 -0.06,0.11 -0.06,0.11 -0.07,0.11 -0.08,0.1 -0.07,0.1 -0.09,0.1 -0.09,0.09 -0.09,0.09 -0.09,0.08 -0.1,0.08 -0.11,0.08 -0.1,0.07 -0.11,0.06 -0.12,0.06 -0.11,0.05 -0.12,0.05 -0.13,0.04 -0.12,0.04 -0.13,0.03 -0.13,0.02 -0.13,0.02 -0.13,0.01 -0.13,0 c -1.45,0 -2.64,-1.19 -2.64,-2.64 0,-1.44 1.19,-2.64 2.64,-2.64 1.44,0 2.63,1.2 2.63,2.64 z"
           inkscape:connector-curvature="0"
           style="fill:#000000;stroke-width:0" /><path
           id="path7627"
           d="m 500.33,409.84 5.28,5.12 c 7.77,6.88 10.76,9.57 10.76,14.55 0,5.68 -4.49,9.67 -10.57,9.67 -5.62,0 -9.31,-4.59 -9.31,-9.02 0,-2.79 2.49,-2.79 2.64,-2.79 0.85,0 2.59,0.6 2.59,2.64 0,1.29 -0.9,2.59 -2.64,2.59 -0.4,0 -0.5,0 -0.65,-0.05 1.15,3.24 3.84,5.08 6.73,5.08 4.53,0 6.67,-4.03 6.67,-8.12 0,-3.98 -2.49,-7.92 -5.23,-11.01 l -9.56,-10.66 c -0.55,-0.54 -0.55,-0.64 -0.55,-1.84 l 18.48,0 1.4,8.67 -1.25,0 c -0.25,-1.5 -0.6,-3.69 -1.1,-4.44 -0.34,-0.39 -3.63,-0.39 -4.73,-0.39 z"
           inkscape:connector-curvature="0"
           style="fill:#000000;stroke-width:0" /></g>    </g>
    <g
       id="g7839"
       transform="matrix(0.75,0,0,0.75,143.13972,802.58903)">
      <g
         id="g7841"
         transform="matrix(0.21472149,0,0,-0.21472149,-37.57626,169.35761)"
         xml:space="preserve"
         stroke-miterlimit="10.433"
         font-style="normal"
         font-variant="normal"
         font-weight="normal"
         font-stretch="normal"
         font-size-adjust="none"
         letter-spacing="normal"
         word-spacing="normal"
         style="font-style:normal;font-variant:normal;font-weight:normal;font-stretch:normal;letter-spacing:normal;word-spacing:normal;text-anchor:start;fill:none;fill-opacity:1;fill-rule:evenodd;stroke:#000000;stroke-linecap:butt;stroke-linejoin:miter;stroke-miterlimit:10.43299961;stroke-dasharray:none;stroke-dashoffset:0;stroke-opacity:1"><path
           d="m 478.91,421.94 0,0.75 -0.01,0.74 -0.02,0.75 -0.03,0.74 -0.05,0.75 -0.06,0.74 -0.07,0.74 -0.1,0.73 -0.11,0.73 -0.14,0.73 -0.16,0.72 -0.19,0.72 -0.22,0.71 -0.24,0.71 -0.28,0.7 -0.15,0.35 -0.16,0.35 c -2.29,4.78 -6.37,5.58 -8.47,5.58 -2.99,0 -6.62,-1.3 -8.66,-5.93 -1.6,-3.44 -1.85,-7.32 -1.85,-11.31 0,-3.74 0.2,-8.22 2.24,-12.01 2.15,-4.03 5.78,-5.03 8.22,-5.03 l 0,1.1 c -1.94,0 -4.88,1.25 -5.78,6.03 -0.54,2.99 -0.54,7.57 -0.54,10.51 0,3.19 0,6.47 0.4,9.16 0.94,5.93 4.68,6.38 5.92,6.38 1.65,0 4.94,-0.9 5.88,-5.83 0.5,-2.79 0.5,-6.57 0.5,-9.71 0,-3.74 0,-7.13 -0.55,-10.31 -0.75,-4.73 -3.59,-6.23 -5.83,-6.23 l 0,0 0,-1.1 c 2.69,0 6.48,1.05 8.67,5.78 1.59,3.44 1.84,7.32 1.84,11.26 z"
           id="path7843"
           inkscape:connector-curvature="0"
           style="fill:#000000;stroke-width:0" /><path
           d="m 489.56,408.64 0,0.14 -0.01,0.13 -0.02,0.13 -0.02,0.13 -0.03,0.13 -0.04,0.12 -0.04,0.12 -0.05,0.12 -0.05,0.12 -0.06,0.11 -0.06,0.11 -0.07,0.11 -0.08,0.1 -0.07,0.1 -0.09,0.1 -0.09,0.09 -0.09,0.09 -0.09,0.08 -0.1,0.08 -0.11,0.08 -0.1,0.07 -0.11,0.06 -0.12,0.06 -0.11,0.05 -0.12,0.05 -0.13,0.04 -0.12,0.04 -0.13,0.03 -0.13,0.02 -0.13,0.02 -0.13,0.01 -0.13,0 c -1.45,0 -2.64,-1.19 -2.64,-2.64 0,-1.44 1.19,-2.64 2.64,-2.64 1.44,0 2.63,1.2 2.63,2.64 z"
           id="path7845"
           inkscape:connector-curvature="0"
           style="fill:#000000;stroke-width:0" /><path
           d="m 508.45,423.54 0.37,0.13 0.38,0.14 0.36,0.16 0.36,0.17 0.35,0.18 0.34,0.19 0.33,0.2 0.32,0.21 0.31,0.22 0.3,0.23 0.3,0.24 0.28,0.25 0.27,0.26 0.26,0.27 0.25,0.27 0.23,0.29 0.23,0.29 0.21,0.3 0.2,0.3 0.19,0.31 0.17,0.32 0.16,0.33 0.15,0.33 0.13,0.33 0.12,0.34 0.1,0.35 0.09,0.35 0.08,0.35 0.05,0.36 0.04,0.36 0.03,0.36 0.01,0.37 c 0,4.09 -4.38,6.88 -9.17,6.88 -5.03,0 -8.81,-2.99 -8.81,-6.78 0,-1.64 1.09,-2.59 2.54,-2.59 1.54,0 2.54,1.1 2.54,2.54 0,2.49 -2.34,2.49 -3.09,2.49 1.54,2.44 4.83,3.09 6.62,3.09 2.05,0 4.79,-1.09 4.79,-5.58 0,-0.6 -0.1,-3.49 -1.4,-5.68 -1.49,-2.39 -3.19,-2.54 -4.43,-2.59 -0.4,-0.05 -1.6,-0.15 -1.94,-0.15 -0.4,-0.05 -0.75,-0.1 -0.75,-0.59 0,-0.55 0.35,-0.55 1.2,-0.55 l 2.19,0 c 4.08,0 5.92,-3.39 5.92,-8.27 0,-6.78 -3.43,-8.22 -5.63,-8.22 -2.14,0 -5.87,0.84 -7.62,3.79 1.75,-0.25 3.29,0.84 3.29,2.73 0,1.8 -1.34,2.79 -2.79,2.79 -1.19,0 -2.79,-0.69 -2.79,-2.88 0,-4.54 4.64,-7.83 10.07,-7.83 6.07,0 10.61,4.54 10.61,9.62 0,4.08 -3.15,7.97 -8.32,9.02 z"
           id="path7847"
           inkscape:connector-curvature="0"
           style="fill:#000000;stroke-width:0" /></g>    </g>
    <g
       id="g8069"
       transform="matrix(0.75,0,0,0.75,179.46568,802.58903)">
      <g
         word-spacing="normal"
         letter-spacing="normal"
         font-size-adjust="none"
         font-stretch="normal"
         font-weight="normal"
         font-variant="normal"
         font-style="normal"
         stroke-miterlimit="10.433"
         xml:space="preserve"
         transform="matrix(0.21472149,0,0,-0.21472149,-37.57626,169.35761)"
         id="g8071"
         style="font-style:normal;font-variant:normal;font-weight:normal;font-stretch:normal;letter-spacing:normal;word-spacing:normal;text-anchor:start;fill:none;fill-opacity:1;fill-rule:evenodd;stroke:#000000;stroke-linecap:butt;stroke-linejoin:miter;stroke-miterlimit:10.43299961;stroke-dasharray:none;stroke-dashoffset:0;stroke-opacity:1"><path
           id="path8073"
           d="m 478.91,421.94 0,0.75 -0.01,0.74 -0.02,0.75 -0.03,0.74 -0.05,0.75 -0.06,0.74 -0.07,0.74 -0.1,0.73 -0.11,0.73 -0.14,0.73 -0.16,0.72 -0.19,0.72 -0.22,0.71 -0.24,0.71 -0.28,0.7 -0.15,0.35 -0.16,0.35 c -2.29,4.78 -6.37,5.58 -8.47,5.58 -2.99,0 -6.62,-1.3 -8.66,-5.93 -1.6,-3.44 -1.85,-7.32 -1.85,-11.31 0,-3.74 0.2,-8.22 2.24,-12.01 2.15,-4.03 5.78,-5.03 8.22,-5.03 l 0,1.1 c -1.94,0 -4.88,1.25 -5.78,6.03 -0.54,2.99 -0.54,7.57 -0.54,10.51 0,3.19 0,6.47 0.4,9.16 0.94,5.93 4.68,6.38 5.92,6.38 1.65,0 4.94,-0.9 5.88,-5.83 0.5,-2.79 0.5,-6.57 0.5,-9.71 0,-3.74 0,-7.13 -0.55,-10.31 -0.75,-4.73 -3.59,-6.23 -5.83,-6.23 l 0,0 0,-1.1 c 2.69,0 6.48,1.05 8.67,5.78 1.59,3.44 1.84,7.32 1.84,11.26 z"
           inkscape:connector-curvature="0"
           style="fill:#000000;stroke-width:0" /><path
           id="path8075"
           d="m 489.56,408.64 0,0.14 -0.01,0.13 -0.02,0.13 -0.02,0.13 -0.03,0.13 -0.04,0.12 -0.04,0.12 -0.05,0.12 -0.05,0.12 -0.06,0.11 -0.06,0.11 -0.07,0.11 -0.08,0.1 -0.07,0.1 -0.09,0.1 -0.09,0.09 -0.09,0.09 -0.09,0.08 -0.1,0.08 -0.11,0.08 -0.1,0.07 -0.11,0.06 -0.12,0.06 -0.11,0.05 -0.12,0.05 -0.13,0.04 -0.12,0.04 -0.13,0.03 -0.13,0.02 -0.13,0.02 -0.13,0.01 -0.13,0 c -1.45,0 -2.64,-1.19 -2.64,-2.64 0,-1.44 1.19,-2.64 2.64,-2.64 1.44,0 2.63,1.2 2.63,2.64 z"
           inkscape:connector-curvature="0"
           style="fill:#000000;stroke-width:0" /><path
           id="path8077"
           d="m 508.64,414.22 0,-4.33 c 0,-1.8 -0.09,-2.35 -3.78,-2.35 l -1.05,0 0,-1.54 13.5,0 0,1.54 -1.04,0 c -3.69,0 -3.79,0.55 -3.79,2.35 l 0,4.33 4.98,0 0,1.54 -4.98,0 0,22.67 c 0,1 0,1.29 -0.8,1.29 -0.45,0 -0.59,0 -0.99,-0.6 l -15.3,-23.36 1.4,0 12.16,18.58 0,-18.58 -12.16,0 -1.4,0 0,-1.54 z"
           inkscape:connector-curvature="0"
           style="fill:#000000;stroke-width:0" /></g>    </g>
    <g
       transform="matrix(0.75,0,0,0.75,40.985958,802.58903)"
       id="g8193">
      <g
         style="font-style:normal;font-variant:normal;font-weight:normal;font-stretch:normal;letter-spacing:normal;word-spacing:normal;text-anchor:start;fill:none;fill-opacity:1;fill-rule:evenodd;stroke:#000000;stroke-linecap:butt;stroke-linejoin:miter;stroke-miterlimit:10.43299961;stroke-dasharray:none;stroke-dashoffset:0;stroke-opacity:1"
         id="g8195"
         transform="matrix(0.21472149,0,0,-0.21472149,-37.57626,169.35761)"
         xml:space="preserve"
         stroke-miterlimit="10.433"
         font-style="normal"
         font-variant="normal"
         font-weight="normal"
         font-stretch="normal"
         font-size-adjust="none"
         letter-spacing="normal"
         word-spacing="normal"><path
           style="fill:#000000;stroke-width:0"
           inkscape:connector-curvature="0"
           d="m 478.91,421.94 0,0.75 -0.01,0.74 -0.02,0.75 -0.03,0.74 -0.05,0.75 -0.06,0.74 -0.07,0.74 -0.1,0.73 -0.11,0.73 -0.14,0.73 -0.16,0.72 -0.19,0.72 -0.22,0.71 -0.24,0.71 -0.28,0.7 -0.15,0.35 -0.16,0.35 c -2.29,4.78 -6.37,5.58 -8.47,5.58 -2.99,0 -6.62,-1.3 -8.66,-5.93 -1.6,-3.44 -1.85,-7.32 -1.85,-11.31 0,-3.74 0.2,-8.22 2.24,-12.01 2.15,-4.03 5.78,-5.03 8.22,-5.03 l 0,1.1 c -1.94,0 -4.88,1.25 -5.78,6.03 -0.54,2.99 -0.54,7.57 -0.54,10.51 0,3.19 0,6.47 0.4,9.16 0.94,5.93 4.68,6.38 5.92,6.38 1.65,0 4.94,-0.9 5.88,-5.83 0.5,-2.79 0.5,-6.57 0.5,-9.71 0,-3.74 0,-7.13 -0.55,-10.31 -0.75,-4.73 -3.59,-6.23 -5.83,-6.23 l 0,0 0,-1.1 c 2.69,0 6.48,1.05 8.67,5.78 1.59,3.44 1.84,7.32 1.84,11.26 z"
           id="path8197" /></g>    </g>
  </g>
</svg>
